<svg xmlns="http://www.w3.org/2000/svg" viewBox="0 0 44.12 43.57"><title>Ресурс 1</title><g id="Слой_2" data-name="Слой 2"><g id="Слой_2-2" data-name="Слой 2"><path d="M25.08,43.57s0-1,0-1.36c0-4.35,0-8.71,0-13.06,0-1,.27-1.45,1.33-1.37l4.24,0c.35-1.95.61-3.66,1-5.84H24.87c.23-2.05.36-3.91.66-5.74.21-1.35,1.31-1.77,2.52-1.89.83-.09,1.66-.08,2.49-.12s1.32-.28,1.24-1.26l-.06-2.85a1,1,0,0,0-.83-.91c-3.22-.08-6.52-.75-9.54,1.55a5.64,5.64,0,0,0-1.77,3,45.55,45.55,0,0,0-.68,6.69l-.07,1.52H13l.47,4.94c.05.32.1.87.1.87s3,0,4,.05,1.11.59,1.13,2L18.7,41v2.61A23.71,23.71,0,0,1,9.46,39.8,21.91,21.91,0,0,1,1.8,30.32,20.9,20.9,0,0,1,.19,19.24,21.87,21.87,0,0,1,7.58,5.46a22.39,22.39,0,0,1,10.28-5A20.78,20.78,0,0,1,28.7,1.1,21.29,21.29,0,0,1,42.31,13.55a19.9,19.9,0,0,1,1.61,11,22.05,22.05,0,0,1-6.11,12.61,23.77,23.77,0,0,1-7.93,5.27A31,31,0,0,1,25.08,43.57Z"/></g></g></svg>