<svg width="206" height="244" viewBox="0 0 206 244" fill="none" xmlns="http://www.w3.org/2000/svg">
<path d="M71 231L77.5 232L101 237.5L139 231.5L141.5 224C142.3 221.6 141.833 218.667 141.5 217.5C140.667 216.167 138.8 213.1 138 211.5C137.2 209.9 137 202.5 137 199C130.167 199.833 115.9 201.7 113.5 202.5C113.5 208.9 106.167 213.167 102.5 214.5L88.5 220C83.6667 222 73.8 226.2 73 227C72.2 227.8 71.3333 230 71 231Z" fill="white"/>
<path d="M148.5 215L154.5 204L157 198C156.833 196.5 156.5 193.1 156.5 191.5C156.5 189.9 154.5 188.5 153.5 188L157 174L158.5 171H160L169 166C170.333 166.333 173.5 167.3 175.5 168.5C178 170 178.5 174.5 179 175C179.4 175.4 178.833 179.5 178.5 181.5L176 201C170.833 207.667 160.4 221.2 160 222C159.6 222.8 153.167 223.333 150 223.5C149 223.333 146.9 222.8 146.5 222C146.1 221.2 147.666 217 148.5 215Z" fill="white"/>
<path d="M139.261 133.437L136.968 101.797L143.388 137.105L127.797 143.525L121.836 154.53L82.8598 187.546V204.053L94.3235 205.429L138.344 198.551V192.131L143.388 193.507L151.642 195.799L158.52 172.414H159.896L162.647 166.911L199.789 115.554C200.859 114.637 203.091 112.069 203.458 109.134C203.824 106.199 202.693 103.632 202.082 102.714L194.287 90.3337L183.74 76.1187L186.033 73.826C177.168 67.2535 154.577 51.4489 135.134 40.8106C115.692 30.1723 101.355 32.7096 96.6162 35.3081L88.3624 37.6008L83.7769 20.176L65.435 13.7563C61.0024 13.7563 51.2201 14.2149 47.5517 16.0491C43.8833 17.8833 45.4118 26.29 46.6346 30.264V41.2692L50.7615 56.4012L72.7718 58.694C72.7718 61.1395 73.0469 67.4981 74.1474 73.3675C75.2479 79.2369 74.606 89.8751 74.1474 94.4606L72.7718 98.5875H78.2743L88.3624 101.797L75.9816 132.061C65.5879 138.023 44.5253 150.22 43.4248 151.32C42.3243 152.421 40.2149 151.779 39.2979 151.32C36.5466 148.722 30.2186 143.525 26.9171 143.525C23.6155 143.525 24.93 145.665 26 146.735L31.044 151.32C31.1969 151.779 31.4108 153.063 31.044 154.53C30.5854 156.364 28.2927 155.906 24.1658 155.906C20.0389 155.906 10.4094 151.32 6.28247 151.32C2.98093 151.32 4.90683 154.377 6.28247 155.906L17.2876 159.574C19.4886 160.308 18.5104 161.714 17.7461 162.326C13.6192 161.867 4.90683 161.133 3.07263 161.867C-2.06308 163.334 0.932755 165.23 3.07263 165.994C6.12962 166.452 12.8855 167.461 15.4534 167.828C18.0213 168.195 17.7461 169.509 17.2876 170.121L14.5363 171.038C12.3964 171.497 7.74982 172.689 6.28247 173.789C4.44827 175.165 5.82391 175.623 6.28247 176.999C6.64931 178.1 15.912 176.541 20.4974 175.623L21.8731 176.999C20.1917 177.763 16.0954 179.75 13.1607 181.585C10.226 183.419 12.855 184.794 14.5363 185.253L35.6295 179.292L70.9376 164.16L80.5671 161.867L94.3235 164.16L139.261 133.437Z" fill="white"/>
<path d="M45.0504 66.8069C46.071 64.8898 48.6627 63.3721 49.3017 63.452C49.9407 63.5318 53.5353 63.7715 54.7333 62.4047C54.9865 62.1225 55.2906 61.8907 55.6298 61.7212C56.159 61.4768 56.7383 61.3599 57.321 61.38C57.9036 61.4 58.4735 61.5565 58.9847 61.8367C61.0083 62.884 65.0999 62.3426 66.6354 61.2864C68.3927 60.0705 72.5552 61.2864 72.5552 61.2864C73.0877 55.1802 72.4752 51.9318 71.6588 50.2188C69.5996 51.8253 65.5703 54.6387 62.242 54.266C58.6476 53.8667 51.0591 44.9202 51.0591 44.9202C49.142 45.2398 47.5445 44.2013 48.1835 40.8465C48.8225 37.4917 47.8638 32.2995 47.8638 32.2995C47.1135 30.9769 46.5207 29.5709 46.0977 28.1104C44.722 33.5065 44.7486 48.6745 45.9468 51.2307C47.145 53.7867 46.6658 58.4552 46.6658 58.4552C44.4292 61.3574 45.0504 66.8069 45.0504 66.8069Z" fill="#020202"/>
<path d="M156.275 170.942C156.577 171.11 156.888 171.27 157.198 171.43C157.095 171.28 156.957 171.158 156.797 171.073C156.636 170.988 156.457 170.943 156.275 170.942Z" fill="#020202"/>
<path d="M134.594 153.749C136.808 156.367 139.227 158.803 141.828 161.036C144.426 163.242 147.155 165.287 150.002 167.16C152.061 168.491 154.138 169.769 156.277 170.941C156.245 170.933 156.212 170.93 156.179 170.932C155.877 170.928 155.582 171.027 155.343 171.213C155.105 171.4 154.937 171.661 154.867 171.956C154.797 172.25 154.83 172.56 154.959 172.833C155.089 173.107 155.308 173.328 155.58 173.46C155.852 173.593 156.161 173.629 156.456 173.562C156.751 173.495 157.015 173.33 157.203 173.094C157.392 172.857 157.494 172.563 157.494 172.261C157.493 171.958 157.39 171.665 157.2 171.429C157.733 171.713 158.274 171.979 158.815 172.245L152.106 196.209C152.106 196.209 144.757 196.209 140.923 193.014C140.273 192.207 139.774 191.29 139.449 190.307C139.067 189.347 138.738 188.366 138.464 187.369C137.878 185.39 137.417 183.366 136.964 181.343C136.077 177.296 135.313 173.222 134.603 169.13C133.876 165.048 133.228 160.947 132.562 156.856C132.163 154.353 131.79 151.841 131.417 149.338C132.388 150.87 133.449 152.343 134.594 153.749ZM153.836 177.109C153.491 177.121 153.165 177.267 152.925 177.515C152.685 177.764 152.552 178.095 152.552 178.44C152.552 178.786 152.685 179.117 152.925 179.366C153.165 179.614 153.491 179.759 153.836 179.772C154.181 179.759 154.508 179.614 154.748 179.366C154.987 179.117 155.121 178.786 155.121 178.44C155.121 178.095 154.987 177.764 154.748 177.515C154.508 177.267 154.181 177.121 153.836 177.109ZM151.919 187.866C152.265 187.855 152.592 187.709 152.832 187.461C153.073 187.213 153.207 186.881 153.207 186.535C153.207 186.189 153.073 185.857 152.832 185.609C152.592 185.36 152.265 185.215 151.919 185.204C151.574 185.215 151.246 185.36 151.006 185.609C150.766 185.857 150.631 186.189 150.631 186.535C150.631 186.881 150.766 187.213 151.006 187.461C151.246 187.709 151.574 187.855 151.919 187.866ZM149.576 194.682C149.922 194.671 150.249 194.526 150.489 194.277C150.73 194.029 150.864 193.697 150.864 193.351C150.864 193.005 150.73 192.673 150.489 192.425C150.249 192.177 149.922 192.031 149.576 192.02C149.231 192.031 148.903 192.177 148.663 192.425C148.423 192.673 148.288 193.005 148.288 193.351C148.288 193.697 148.423 194.029 148.663 194.277C148.903 194.526 149.231 194.671 149.576 194.682Z" fill="#020202"/>
<path d="M128.354 136.78C140.495 126.13 137.682 97.9237 137.682 97.9237C144.578 97.7285 162.648 105.148 162.648 105.148C162.808 105.077 162.977 105.006 163.136 104.927C166.285 106.238 169.572 107.188 172.935 107.758C174.603 108.122 176.316 108.219 178.012 108.423C178.864 108.485 179.725 108.494 180.576 108.539C181.428 108.583 182.281 108.583 183.141 108.565C184.846 108.548 186.55 108.406 188.254 108.264C189.949 108.051 191.644 107.846 193.313 107.491C196.665 106.873 199.931 105.854 203.04 104.456C199.73 105.184 196.419 105.725 193.1 106.125C189.783 106.528 186.447 106.75 183.106 106.79C179.773 106.866 176.438 106.732 173.121 106.391C169.775 106.125 166.491 105.494 163.136 104.927C178.012 98.1989 193.774 87.1313 193.774 87.1313C193.774 87.1313 220.161 111.858 194.6 158.507C194.6 158.507 176.068 175.122 158.814 172.246C153.072 168.697 147.673 164.62 142.688 160.069C140.241 157.786 137.952 155.34 135.836 152.747C133.795 150.139 132.054 147.311 130.644 144.315L130.635 144.306C130.549 144.115 130.398 143.961 130.207 143.873C130.017 143.785 129.802 143.769 129.601 143.827C129.399 143.885 129.226 144.015 129.113 144.191C128.999 144.367 128.954 144.578 128.984 144.786C129.534 148.913 130.182 153.022 130.866 157.131C131.549 161.241 132.33 165.323 133.155 169.406C134.016 173.489 134.939 177.554 136.058 181.574C136.626 183.58 137.256 185.568 137.975 187.529C138.327 188.517 138.73 189.486 139.182 190.432C139.598 191.392 140.188 192.268 140.921 193.015V199.405C140.921 199.405 97.787 210.907 82.1309 204.517L80.2138 173.844L79.4861 161.356C100.929 154.14 116.212 147.431 128.354 136.78ZM136.581 196.174C136.927 196.163 137.254 196.017 137.495 195.769C137.735 195.521 137.869 195.189 137.869 194.843C137.869 194.497 137.735 194.165 137.495 193.917C137.254 193.668 136.927 193.523 136.581 193.512C136.236 193.523 135.908 193.668 135.668 193.917C135.428 194.165 135.293 194.497 135.293 194.843C135.293 195.189 135.428 195.521 135.668 195.769C135.908 196.017 136.236 196.163 136.581 196.174ZM128.7 197.878C129.045 197.867 129.373 197.722 129.613 197.473C129.854 197.225 129.988 196.893 129.988 196.547C129.988 196.201 129.854 195.869 129.613 195.621C129.373 195.372 129.045 195.227 128.7 195.216C128.355 195.227 128.027 195.372 127.787 195.621C127.546 195.869 127.412 196.201 127.412 196.547C127.412 196.893 127.546 197.225 127.787 197.473C128.027 197.722 128.355 197.867 128.7 197.878V197.878ZM119.328 200.008C119.673 199.997 120 199.852 120.241 199.603C120.481 199.355 120.615 199.023 120.615 198.677C120.615 198.331 120.481 197.999 120.241 197.751C120 197.502 119.673 197.357 119.328 197.346C118.982 197.357 118.655 197.502 118.414 197.751C118.174 197.999 118.04 198.331 118.04 198.677C118.04 199.023 118.174 199.355 118.414 199.603C118.655 199.852 118.982 199.997 119.328 200.008ZM109.316 201.286C109.662 201.275 109.989 201.13 110.229 200.881C110.47 200.633 110.604 200.301 110.604 199.955C110.604 199.609 110.47 199.277 110.229 199.029C109.989 198.78 109.662 198.635 109.316 198.624C108.971 198.635 108.643 198.78 108.403 199.029C108.162 199.277 108.028 199.609 108.028 199.955C108.028 200.301 108.162 200.633 108.403 200.881C108.643 201.13 108.971 201.275 109.316 201.286ZM99.0916 201.925C99.4371 201.914 99.7647 201.769 100.005 201.52C100.245 201.272 100.38 200.94 100.38 200.594C100.38 200.248 100.245 199.916 100.005 199.668C99.7647 199.419 99.4371 199.274 99.0916 199.263C98.7461 199.274 98.4184 199.419 98.1779 199.668C97.9374 199.916 97.803 200.248 97.803 200.594C97.803 200.94 97.9374 201.272 98.1779 201.521C98.4184 201.769 98.7461 201.914 99.0916 201.925V201.925ZM88.2282 201.925C88.5737 201.914 88.9011 201.769 89.1415 201.52C89.3818 201.272 89.5162 200.94 89.5162 200.594C89.5162 200.248 89.3818 199.916 89.1415 199.668C88.9011 199.42 88.5737 199.274 88.2282 199.263C87.8827 199.274 87.5551 199.419 87.3146 199.668C87.0742 199.916 86.9398 200.248 86.9398 200.594C86.9398 200.94 87.0742 201.272 87.3146 201.52C87.5551 201.769 87.8827 201.914 88.2282 201.925V201.925Z" fill="#020202"/>
<path d="M147.291 97.2791C150.91 96.1756 154.44 94.7943 157.847 93.1475C159.535 92.2963 161.246 91.4794 162.896 90.5542C164.56 89.6502 166.173 88.664 167.802 87.7027C171.028 85.7273 174.201 83.6661 177.258 81.4411C180.317 79.2167 183.257 76.8481 186.141 74.3887L186.161 74.3719C186.261 74.2865 186.323 74.1648 186.333 74.0337C186.344 73.9025 186.302 73.7726 186.216 73.6725C186.192 73.6439 186.164 73.6181 186.134 73.5955C182.727 71.0761 179.27 68.6587 175.851 66.1786C172.441 63.6884 168.987 61.2613 165.547 58.8069C158.675 53.8672 151.54 49.304 144.174 45.1373C136.834 40.8413 129.05 37.3553 120.957 34.7406C116.886 33.4141 112.662 32.616 108.388 32.3659C106.24 32.2503 104.087 32.4147 101.982 32.8548C99.8805 33.3019 97.8935 34.1749 96.1431 35.42C96.1241 35.434 96.1115 35.4549 96.108 35.4782C96.1045 35.5015 96.1103 35.5252 96.1243 35.5442C96.1377 35.5617 96.1571 35.5738 96.1788 35.5781C96.2005 35.5824 96.223 35.5785 96.2421 35.5673C99.8892 33.4094 104.212 33.0619 108.314 33.4628C112.455 33.9434 116.528 34.894 120.454 36.2963C128.332 39.1686 135.979 42.638 143.328 46.6741C150.713 50.6861 157.954 54.9959 165.074 59.5108C172.2 64.0203 179.023 68.9922 185.498 74.3944L185.491 73.6014C182.524 75.8845 179.426 78.0236 176.354 80.1712C173.272 82.3088 170.186 84.4386 167.033 86.4691C165.44 87.4552 163.861 88.468 162.235 89.3974C160.64 90.3857 159.001 91.2901 157.371 92.2187C154.064 93.9835 150.709 95.6576 147.232 97.1114C147.21 97.1201 147.193 97.1371 147.184 97.1587C147.174 97.1803 147.174 97.2048 147.182 97.2267C147.191 97.2471 147.207 97.2636 147.227 97.2733C147.247 97.2829 147.269 97.285 147.291 97.2791Z" fill="#020202"/>
<path d="M80.9341 160.86C91.959 158.565 102.576 154.625 112.429 149.172C117.341 146.389 122.004 143.189 126.366 139.605C126.915 139.161 127.444 138.696 127.984 138.242C128.518 137.789 129.063 137.342 129.605 136.804C130.636 135.751 131.532 134.574 132.273 133.3C133.697 130.798 134.789 128.123 135.524 125.34C136.964 119.865 137.835 114.256 138.123 108.602C138.473 102.988 138.512 97.3586 138.242 91.7399C138.18 90.3365 138.099 88.9336 137.999 87.5312C137.909 86.1239 137.708 84.7133 137.553 83.3322C137.217 80.5513 136.889 77.7699 136.501 74.9953C136.119 72.2201 135.721 69.4469 135.282 66.6796C134.901 63.902 134.331 61.1535 133.577 58.4531C133.908 59.8117 134.158 61.1889 134.325 62.5774C134.51 63.9634 134.69 65.3498 134.849 66.7391C135.167 69.5181 135.443 72.3019 135.703 75.0871L136.468 83.444C136.745 86.2361 136.869 88.9803 136.928 91.7839C137.037 97.359 136.932 102.94 136.51 108.487C136.151 114.018 135.257 119.502 133.842 124.861C133.129 127.492 132.092 130.025 130.755 132.402C130.093 133.553 129.292 134.619 128.368 135.573C127.92 136.025 127.386 136.472 126.855 136.926C126.326 137.376 125.807 137.837 125.269 138.277C121.001 141.833 116.458 145.047 111.684 147.888C106.901 150.739 101.91 153.227 96.7542 155.33C91.5847 157.458 86.3036 159.304 80.9341 160.86Z" fill="#020202"/>
<path d="M192.479 87.9448C192.025 86.7403 191.462 85.5795 190.798 84.4766C190.161 83.3822 189.467 82.3216 188.719 81.299C187.973 80.2757 187.173 79.2923 186.324 78.3529C185.474 77.3852 184.538 76.4974 183.527 75.7007C183.979 76.9062 184.541 78.0676 185.206 79.1705C185.843 80.2649 186.538 81.325 187.287 82.3464C188.035 83.3686 188.835 84.3515 189.684 85.291C190.534 86.2582 191.47 87.1464 192.479 87.9448Z" fill="#020202"/>
<path d="M130.86 50.3541C130.143 49.1673 129.249 48.0971 128.209 47.1803C127.186 46.234 126.042 45.4266 124.808 44.7786C123.556 44.0919 122.186 43.6503 120.769 43.4777C119.342 43.2708 117.887 43.5549 116.642 44.2834C117.947 44.2499 119.248 44.4362 120.491 44.8346C121.7 45.2323 122.869 45.7399 123.985 46.351C125.125 46.9438 126.254 47.5959 127.382 48.2843C128.511 48.9731 129.648 49.6728 130.86 50.3541Z" fill="#020202"/>
<path d="M108.635 44.836C105.409 45.9371 102.628 48.0581 100.714 50.8786C98.764 53.6506 97.3115 56.7406 96.4211 60.0106C95.5292 63.2683 94.9823 66.6109 94.7895 69.9831C94.5981 73.3227 94.4463 76.6641 94.3341 80.007C94.2134 83.3508 94.1814 86.6979 94.2021 90.0492C94.2292 93.3933 94.3317 96.7728 94.6501 100.11C94.8953 103.385 94.7501 106.676 94.2177 109.917C93.7084 113.162 92.9137 116.356 91.8428 119.462L91.9111 119.325C91.3922 120.003 90.791 120.614 90.1213 121.144C89.4288 121.731 88.7011 122.296 87.9624 122.849C86.4836 123.953 84.9559 125.011 83.4164 126.051C80.3255 128.116 77.2034 130.145 74.0502 132.137C67.7454 136.116 61.3584 139.975 54.9428 143.785C51.7384 145.697 48.5143 147.574 45.2706 149.419L42.8401 150.806C42.4585 151.042 42.0615 151.252 41.6519 151.435C41.2558 151.577 40.8319 151.624 40.4143 151.572C39.9967 151.521 39.597 151.372 39.2474 151.137C38.919 150.911 38.5473 150.553 38.1985 150.266L36.0714 148.443C35.3487 147.834 34.5881 147.272 33.7941 146.76C33.0018 146.234 32.17 145.803 31.3933 145.31C30.6033 144.817 29.8421 144.305 29.0634 143.77C28.6394 143.479 28.1529 143.292 27.6433 143.225C27.1338 143.158 26.6154 143.211 26.1305 143.381C25.87 143.467 25.6302 143.606 25.4264 143.789C25.2226 143.973 25.0592 144.197 24.9467 144.447C24.7643 144.953 24.756 145.505 24.9234 146.017C25.0682 146.507 25.3151 146.961 25.6479 147.349C25.9865 147.743 26.3436 148.022 26.6801 148.348L30.7907 152.148L30.7298 152.073C30.9764 152.398 31.0945 152.802 31.0614 153.208C31.0282 153.614 30.8461 153.994 30.55 154.274C29.8665 154.854 29.0597 155.271 28.1908 155.493C27.3179 155.765 26.4166 155.936 25.5046 156.002C24.5817 155.953 23.6648 155.822 22.7645 155.613C19.0751 154.814 15.4273 153.705 11.8004 152.582L9.08449 151.716C8.61364 151.569 8.22426 151.423 7.68781 151.272C7.14233 151.127 6.57131 151.105 6.01639 151.209C5.71732 151.266 5.42933 151.371 5.16333 151.519C4.84605 151.698 4.59367 151.973 4.44238 152.305C4.21941 152.908 4.24184 153.574 4.50484 154.161C4.8988 155.179 5.59869 156.049 6.50807 156.653C6.95013 156.948 7.42854 157.185 7.9314 157.358L9.2775 157.834L11.9699 158.786L17.3549 160.691L17.2259 160.631C17.4333 160.751 17.6267 160.893 17.8025 161.056C17.8898 161.125 17.9538 161.219 17.9859 161.325C17.9904 161.311 17.9772 161.396 17.8325 161.527C17.6737 161.664 17.4955 161.776 17.3037 161.86L17.6382 161.804L8.68981 161.224L4.21517 160.943C3.30794 160.876 2.40031 161.068 1.59779 161.497C1.1675 161.729 0.787361 162.044 0.479179 162.424C0.291328 162.66 0.153946 162.931 0.0755997 163.222C-0.00274658 163.513 -0.0203781 163.818 0.0237656 164.116C0.121414 164.63 0.351807 165.11 0.692108 165.508C0.979019 165.862 1.31548 166.173 1.69115 166.432C2.42878 166.932 3.2776 167.243 4.16345 167.339L8.6522 167.74L13.1181 168.136L14.2347 168.235L14.7929 168.284C14.9416 168.296 15.0893 168.317 15.2351 168.349C15.5003 168.404 15.7543 168.504 15.986 168.644C16.1807 168.761 16.3484 168.919 16.4782 169.105C16.5099 169.155 16.5293 169.211 16.5346 169.27C16.5399 169.328 16.5311 169.387 16.5088 169.442C16.4453 169.62 16.3291 169.775 16.1757 169.885C16.0884 169.951 15.993 170.004 15.892 170.045C15.7661 170.095 15.6355 170.132 15.5022 170.156L14.4098 170.407L10.0411 171.415L7.85917 171.929C7.47452 172.026 7.18433 172.073 6.70026 172.218C6.24152 172.361 5.81045 172.582 5.42538 172.869C5.01309 173.179 4.67388 173.576 4.43171 174.032C4.28249 174.312 4.19445 174.62 4.17342 174.937C4.15237 175.253 4.19883 175.57 4.30968 175.868C4.52103 176.365 4.85883 176.798 5.28947 177.124C5.72012 177.451 6.22864 177.659 6.76453 177.727C7.19722 177.776 7.63344 177.784 8.06762 177.752C8.46079 177.735 8.84231 177.703 9.22429 177.672C9.98308 177.602 10.7355 177.522 11.4814 177.432L15.935 176.871L18.1395 176.618C18.8105 176.529 19.4882 176.501 20.1643 176.534C20.3861 176.555 20.5999 176.627 20.7887 176.745C20.9168 176.86 20.8819 176.837 20.8852 176.869C20.8978 177.095 20.4224 177.61 20.1305 177.641C20.0856 177.646 20.0418 177.658 20.0008 177.677L19.941 177.706L13.9072 180.546L14.0939 180.483C13.562 180.581 13.06 180.801 12.6265 181.125C12.193 181.448 11.8396 181.867 11.5936 182.349C11.4538 182.652 11.3843 182.982 11.3904 183.315C11.3966 183.648 11.4781 183.975 11.629 184.272C11.8869 184.757 12.2598 185.172 12.7151 185.479C13.5713 186.063 14.6191 186.294 15.6413 186.125C16.18 186.028 16.5111 185.9 16.9081 185.796L18.0679 185.463L27.3467 182.802L28.5065 182.469L29.0864 182.303L29.2315 182.261L29.2676 182.251L29.2857 182.245C29.2562 182.252 29.3775 182.224 29.2241 182.258L29.3054 182.244L29.6287 182.179C30.4625 181.981 31.27 181.684 32.0341 181.296L36.4243 179.267C39.342 177.897 42.2374 176.487 45.1248 175.07C50.833 172.138 56.7295 169.588 62.7755 167.436L80.9636 160.943C80.9746 160.939 80.9847 160.933 80.9933 160.926C81.002 160.918 81.009 160.908 81.014 160.898C81.019 160.887 81.0218 160.876 81.0224 160.864C81.023 160.853 81.0213 160.841 81.0173 160.83C81.0093 160.808 80.9932 160.79 80.9724 160.78C80.9516 160.77 80.9276 160.768 80.9056 160.776L62.5252 166.672C56.394 168.7 50.4042 171.133 44.5951 173.954L35.8346 177.991L31.4356 179.952C30.7611 180.288 30.0487 180.542 29.3137 180.708L29.045 180.758L28.9776 180.769L28.8249 180.806L28.6794 180.846L28.0972 181.004L26.933 181.321L17.6185 183.854L16.4542 184.171C16.0736 184.27 15.6408 184.406 15.3853 184.441C14.8002 184.533 14.2025 184.396 13.715 184.06C13.502 183.913 13.3256 183.72 13.1996 183.494C13.1647 183.432 13.1464 183.362 13.1466 183.292C13.1468 183.221 13.1654 183.151 13.2007 183.089C13.3362 182.86 13.5208 182.663 13.7412 182.513C13.9617 182.363 14.2125 182.264 14.4758 182.222C14.5349 182.21 14.5924 182.191 14.6471 182.166L14.663 182.159L20.7058 179.337L20.5169 179.401C21.0556 179.272 21.5447 178.988 21.9241 178.584C22.3299 178.181 22.595 177.657 22.6802 177.091C22.7273 176.727 22.6651 176.358 22.5015 176.029C22.3517 175.736 22.1344 175.482 21.8674 175.289C21.4353 174.986 20.9344 174.796 20.4101 174.735C19.594 174.676 18.774 174.699 17.9626 174.804L15.7122 175.055L11.2672 175.6C10.5294 175.688 9.7955 175.763 9.06551 175.828C8.70258 175.856 8.33918 175.885 7.98587 175.899C7.67458 175.921 7.36201 175.919 7.05109 175.892C6.84161 175.87 6.6409 175.796 6.46699 175.677C6.29308 175.558 6.15141 175.398 6.05473 175.211C6.03372 175.157 6.02639 175.099 6.03338 175.041C6.04037 174.984 6.06147 174.929 6.09481 174.881C6.21117 174.678 6.36765 174.501 6.5547 174.361C6.77113 174.202 7.01275 174.082 7.26939 174.004C7.50091 173.931 7.94669 173.84 8.28702 173.757L10.4705 173.25L14.8328 172.214L15.9232 171.955C16.1567 171.906 16.3851 171.836 16.6056 171.745C16.8502 171.642 17.0805 171.509 17.291 171.348C17.7404 171.007 18.0753 170.538 18.2511 170.003C18.3488 169.702 18.3811 169.384 18.3461 169.069C18.311 168.755 18.2092 168.452 18.0475 168.18C17.7673 167.738 17.3874 167.369 16.9383 167.101C16.5289 166.854 16.0802 166.679 15.6117 166.584C15.3918 166.538 15.1691 166.507 14.945 166.491L14.3863 166.445L13.2691 166.355L8.80025 165.993L4.35449 165.631C3.74671 165.572 3.16266 165.365 2.65308 165.028C2.20731 164.756 1.86687 164.34 1.68717 163.85C1.67596 163.777 1.68106 163.703 1.7021 163.633C1.72312 163.563 1.75956 163.498 1.80875 163.444C1.97651 163.245 2.17957 163.079 2.40768 162.954C2.93227 162.674 3.52525 162.548 4.11828 162.59L8.59493 162.836L17.5496 163.31L17.5789 163.311C17.6839 163.317 17.7886 163.297 17.8843 163.253C18.2403 163.097 18.5681 162.884 18.8542 162.621C19.0481 162.453 19.2034 162.245 19.3096 162.012C19.4158 161.779 19.4704 161.525 19.4695 161.269C19.4276 160.779 19.1978 160.324 18.8283 159.999C18.5648 159.756 18.2741 159.545 17.962 159.37C17.9209 159.346 17.8777 159.326 17.8328 159.311L12.4227 157.478L9.71779 156.562L8.36544 156.104C7.9635 155.977 7.57993 155.798 7.22444 155.571C6.52466 155.129 5.97885 154.482 5.66207 153.717C5.51531 153.433 5.4752 153.106 5.549 152.795C5.59916 152.618 5.87522 152.45 6.25742 152.365C6.64114 152.287 7.0373 152.297 7.417 152.392C7.79942 152.489 8.30901 152.659 8.7492 152.788L11.4926 153.601C15.1615 154.651 18.8289 155.699 22.5985 156.447C23.5574 156.652 24.5327 156.771 25.5128 156.802C26.5006 156.72 27.475 156.521 28.4154 156.208C29.393 155.937 30.2942 155.442 31.048 154.763C31.4533 154.371 31.6979 153.841 31.734 153.278C31.7427 152.733 31.5908 152.198 31.2972 151.74C31.2805 151.712 31.2599 151.686 31.2361 151.664L27.1009 147.89C26.7646 147.571 26.3851 147.268 26.1153 146.953C25.8356 146.632 25.6271 146.256 25.5034 145.849C25.3718 145.468 25.3696 145.054 25.4969 144.672C25.5777 144.496 25.6944 144.339 25.8397 144.211C25.985 144.082 26.1555 143.986 26.3403 143.928C26.7393 143.788 27.1657 143.743 27.5851 143.799C28.0044 143.854 28.4049 144.007 28.7542 144.245C29.5163 144.762 30.3069 145.287 31.1042 145.776C31.906 146.279 32.7396 146.698 33.502 147.208C34.2721 147.714 35.0092 148.269 35.709 148.869L37.8165 150.708C38.1857 151.016 38.479 151.319 38.9136 151.631C39.34 151.922 39.8287 152.109 40.3404 152.176C40.8521 152.244 41.3725 152.19 41.8597 152.02C42.3052 151.83 42.7366 151.608 43.1507 151.357L45.5946 149.991L55.3559 144.499C61.8592 140.829 68.3344 137.107 74.738 133.252C77.9379 131.321 81.1271 129.368 84.244 127.288C85.804 126.249 87.3536 125.193 88.8723 124.074C89.6313 123.514 90.383 122.939 91.118 122.325C91.9177 121.701 92.6297 120.972 93.2347 120.159C93.2604 120.122 93.2814 120.082 93.297 120.039L93.3035 120.021C94.4524 116.822 95.2738 113.515 95.7552 110.149C96.2784 106.786 96.3994 103.373 96.1157 99.9808C95.5806 93.347 95.4099 86.6889 95.6043 80.0364C95.7969 73.371 95.5262 66.6402 97.2511 60.2358C98.0267 57.0205 99.3492 53.9625 101.161 51.1953C102.089 49.8288 103.191 48.5887 104.438 47.5061C105.673 46.403 107.112 45.5544 108.675 45.0088L108.687 45.0052C108.709 44.9981 108.727 44.9826 108.738 44.962C108.749 44.9414 108.751 44.9174 108.744 44.8952C108.737 44.8729 108.722 44.8543 108.702 44.8432C108.681 44.8322 108.657 44.8295 108.635 44.836L108.635 44.836Z" fill="#020202"/>
<path d="M137.685 100.518C134.081 100.561 130.502 100.666 126.926 100.75C123.35 100.822 119.781 100.904 116.219 100.873C112.657 100.866 109.102 100.752 105.572 100.443C103.811 100.285 102.061 100.024 100.33 99.6624C98.5833 99.3381 96.9072 98.7084 95.3789 97.8022C96.7355 99.032 98.343 99.9526 100.09 100.5C101.818 101.084 103.591 101.524 105.391 101.817C108.97 102.374 112.588 102.651 116.21 102.647C119.821 102.643 123.424 102.484 127.008 102.128C130.596 101.805 134.161 101.267 137.685 100.518Z" fill="#020202"/>
<path d="M83.9894 13.2373C83.9894 13.2373 95.3412 35.8162 100.24 37.7333C105.14 39.6504 104.075 45.7018 101.518 47.1493C98.9624 48.5968 89.803 53.709 88.951 54.9871C88.0989 56.2651 72.6521 64.3595 72.6007 62.0164C72.5573 60.0394 71.072 50.5939 73.0079 44.9076C74.2424 41.5117 74.779 37.9017 74.5859 34.2936C74.4681 32.7 74.2019 31.5029 73.6676 31.5029C73.6676 31.5029 78.4603 26.3906 73.6676 20.0004C73.6676 20.0004 67.9962 14.4088 66.7182 24.6333C66.7182 24.6333 49.1449 23.1955 44.512 18.4028C44.512 18.4028 49.5443 -2.60522 67.0376 0.270406C67.0377 0.270387 79.5337 2.24073 83.9894 13.2373Z" fill="#020202"/>
<path d="M45.1213 18.9597C44.8998 22.0408 45.2304 25.1366 46.0976 28.1014V28.1102C46.5206 29.5708 47.1134 30.9768 47.8638 32.2994C47.8638 32.2994 48.8223 37.4915 48.1833 40.8464C47.5443 44.2013 49.1419 45.2397 51.0589 44.9202C51.0589 44.9202 58.6474 53.8666 62.2419 54.266C65.5702 54.6387 69.5996 51.8252 71.6587 50.2188C71.8273 50.0946 71.9782 49.9703 72.1113 49.8638" stroke="#020202" stroke-width="0.96777" stroke-linecap="round" stroke-linejoin="round"/>
<path d="M54.2569 34.751C53.9117 34.7391 53.5847 34.5936 53.3448 34.3452C53.1048 34.0969 52.9707 33.765 52.9707 33.4197C52.9707 33.0744 53.1048 32.7425 53.3448 32.4941C53.5847 32.2458 53.9117 32.1003 54.2569 32.0884C54.602 32.1003 54.929 32.2458 55.1689 32.4941C55.4089 32.7425 55.543 33.0744 55.543 33.4197C55.543 33.765 55.4089 34.0969 55.1689 34.3452C54.929 34.5936 54.602 34.7391 54.2569 34.751Z" fill="#020202"/>
<path d="M73.2676 28.521C72.9224 28.5091 72.5954 28.3636 72.3555 28.1152C72.1156 27.8669 71.9814 27.535 71.9814 27.1897C71.9814 26.8444 72.1156 26.5125 72.3555 26.2642C72.5954 26.0158 72.9224 25.8703 73.2676 25.8584C73.6127 25.8703 73.9397 26.0158 74.1797 26.2642C74.4196 26.5125 74.5537 26.8444 74.5537 27.1897C74.5537 27.535 74.4196 27.8669 74.1797 28.1152C73.9397 28.3636 73.6127 28.5091 73.2676 28.521Z" fill="#020202"/>
<path d="M58.7637 27.1897C57.9012 27.1647 57.0399 27.2688 56.2083 27.4987C55.3715 27.7189 54.562 28.0321 53.7949 28.4323C53.0236 28.8352 52.3091 29.3386 51.6703 29.9295C51.028 30.5135 50.4969 31.209 50.1026 31.9823C50.787 31.4508 51.4108 30.9199 52.1029 30.4703C52.7799 30.012 53.483 29.5935 54.2087 29.2169C55.6892 28.4593 57.2098 27.7825 58.7637 27.1897Z" fill="#020202"/>
<path d="M59.6885 44.9229C59.0379 45.372 58.455 45.9119 57.9573 46.5261C57.7177 46.8196 57.4763 47.1031 57.2516 47.403C57.0239 47.7154 56.7703 48.008 56.4934 48.2778C56.9299 48.3096 57.3631 48.1823 57.713 47.9195C58.0561 47.6908 58.3656 47.4154 58.6326 47.1011C59.1745 46.4835 59.5393 45.7308 59.6885 44.9229Z" fill="#020202"/>
<path d="M53.9368 40.0498C53.9002 40.4157 53.9225 40.7851 54.0028 41.144C54.0628 41.432 54.1548 41.6156 54.2562 42.1267C54.3773 42.0972 54.4898 42.0394 54.5843 41.9583C54.6789 41.8771 54.753 41.7747 54.8005 41.6595C54.8954 41.436 54.9192 41.1888 54.8686 40.9513C54.8225 40.7245 54.7088 40.517 54.5425 40.3561C54.3762 40.1951 54.165 40.0884 53.9368 40.0498Z" fill="#020202"/>
<path d="M72.6005 62.0164C72.8018 66.1869 73.1961 70.3228 73.5537 74.4555C73.7637 76.5177 73.9224 78.584 74.1029 80.6379C74.1909 81.6656 74.2563 82.6927 74.2993 83.7101C74.3093 84.2127 74.3619 84.7343 74.3434 85.2169L74.3355 85.9481L74.2659 86.5688L74.2406 86.7489C74.2072 87.7323 74.1161 88.7517 74.0301 89.7515C73.9336 90.7546 73.7993 91.7517 73.6224 92.7362C73.4622 93.7136 73.2285 94.6776 72.9234 95.6198C72.6721 96.5241 72.2168 97.3588 71.5925 98.0597L71.5437 98.107C71.4805 98.1683 71.4354 98.2458 71.4134 98.331C71.3913 98.4162 71.3931 98.5058 71.4186 98.5901C71.4441 98.6743 71.4923 98.7499 71.558 98.8085C71.6236 98.8672 71.7041 98.9067 71.7907 98.9226C72.9006 99.1245 74.0274 99.2195 75.1555 99.2063C75.7192 99.2003 76.2813 99.1444 76.8351 99.0394C77.3898 98.9451 77.9201 98.7417 78.3955 98.4408C77.8862 98.6357 77.3448 98.7325 76.7995 98.7264C76.2597 98.7386 75.7198 98.7057 75.1855 98.628C74.118 98.4864 73.063 98.2629 72.0298 97.9594L72.228 98.822C73.0822 98.0846 73.735 97.1422 74.1251 96.0833C74.5343 95.0991 74.8612 94.0827 75.1026 93.0445C75.5721 90.995 75.8624 88.9085 75.97 86.8086L75.9447 86.9883L76.0739 86.0635L76.0974 85.2373C76.1216 84.681 76.0842 84.1652 76.0696 83.6295C76.0092 82.5724 75.9261 81.5265 75.8213 80.4857C75.6362 78.4006 75.3288 76.3375 75.0357 74.2754C74.3884 70.1589 73.6334 66.0636 72.6005 62.0164Z" fill="#020202"/>
<path d="M93.9737 51.5049C94.2096 52.6 94.7078 53.6214 95.4257 54.4814C96.0996 55.3635 96.9351 56.1093 97.8877 56.6792C97.4087 55.6984 96.8165 54.777 96.1234 53.9339C95.4566 53.0815 94.7387 52.2703 93.9737 51.5049Z" fill="#020202"/>
<path d="M137.455 88.853L137.664 89.0452L137.658 89.04C139.176 91.0986 140.901 92.9963 142.807 94.7032C144.708 96.4265 146.755 97.9815 148.925 99.3505C151.1 100.715 153.392 101.882 155.775 102.838C158.145 103.805 160.616 104.505 163.141 104.926C160.835 103.825 158.566 102.749 156.35 101.586C154.14 100.414 151.968 99.1919 149.87 97.8497C147.755 96.5334 145.713 95.1026 143.697 93.6196C141.686 92.1281 139.724 90.559 137.714 88.9858L137.708 88.9803L137.455 88.853Z" fill="#020202"/>
<path d="M176.471 169.728C177.817 171.392 178.653 173.41 178.877 175.539C178.985 176.583 178.977 177.636 178.854 178.679C178.819 179.201 178.676 179.714 178.594 180.229L178.189 181.752L178.204 181.706C176.722 185.517 175.337 189.356 174.153 193.272C173.563 195.231 173.063 197.219 172.607 199.221C172.384 200.224 172.179 201.232 172.018 202.255C171.937 202.766 171.867 203.28 171.83 203.807C171.767 204.359 171.792 204.917 171.903 205.461L171.936 205.201C170.689 207.446 169.245 209.577 167.624 211.568C166.018 213.569 164.224 215.411 162.268 217.07C160.348 218.721 158.221 220.114 155.939 221.212C153.724 222.294 151.288 222.851 148.822 222.839L148.735 222.842C148.503 222.812 148.25 222.633 148.212 221.986C148.197 221.654 148.216 221.321 148.27 220.993C148.351 220.636 148.424 220.276 148.531 219.914C149.024 218.425 149.639 216.979 150.368 215.591C151.107 214.171 151.904 212.786 152.707 211.373L153.921 209.207L155.006 206.967C156.449 203.95 157.371 200.71 157.735 197.386C157.895 195.703 157.751 194.006 157.309 192.375C157.071 191.56 156.703 190.788 156.221 190.089C155.721 189.403 155.056 188.855 154.288 188.497C154.277 188.492 154.265 188.49 154.254 188.489C154.242 188.489 154.23 188.491 154.22 188.495C154.209 188.5 154.199 188.506 154.19 188.514C154.182 188.522 154.175 188.532 154.171 188.543C154.163 188.563 154.162 188.586 154.169 188.606C154.176 188.627 154.19 188.645 154.209 188.656C154.871 189.087 155.424 189.666 155.823 190.348C156.197 191.038 156.458 191.784 156.596 192.556C156.867 194.11 156.87 195.699 156.607 197.254C156.026 200.389 154.975 203.419 153.49 206.241L152.352 208.355L151.131 210.427L149.865 212.545C149.438 213.251 149.077 214.003 148.68 214.73C147.886 216.224 147.245 217.795 146.765 219.418C146.497 220.307 146.391 221.237 146.452 222.163C146.492 222.746 146.707 223.303 147.068 223.761C147.286 224.019 147.559 224.224 147.868 224.359C148.188 224.498 148.535 224.559 148.882 224.539L148.795 224.542C150.161 224.53 151.52 224.345 152.84 223.992C154.135 223.626 155.387 223.121 156.572 222.483C157.75 221.87 158.867 221.15 159.911 220.33C160.952 219.53 161.946 218.671 162.887 217.755C164.743 215.929 166.472 213.978 168.061 211.916C169.663 209.869 171.159 207.742 172.543 205.543C172.585 205.476 172.599 205.395 172.583 205.317L172.576 205.282C172.521 204.82 172.539 204.352 172.631 203.895C172.702 203.409 172.808 202.919 172.924 202.431C173.155 201.455 173.434 200.483 173.725 199.515C174.311 197.578 174.988 195.664 175.623 193.737L179.481 182.176L179.495 182.134L179.496 182.13C179.618 181.576 179.754 181.027 179.849 180.469C179.905 179.903 180.021 179.347 180.025 178.777C180.091 177.643 180.014 176.505 179.795 175.39C179.565 174.283 179.176 173.216 178.639 172.221C178.126 171.226 177.431 170.335 176.59 169.596C176.573 169.581 176.551 169.574 176.529 169.575C176.507 169.576 176.486 169.585 176.47 169.601C176.454 169.616 176.445 169.637 176.444 169.659C176.443 169.682 176.451 169.703 176.465 169.72L176.471 169.728Z" fill="#020202"/>
<path d="M190.525 184.7C189.285 181.671 186.357 178.753 179.5 180.236C179.5 180.236 171.385 199.833 172.237 205.372C169.215 205.263 166.267 204.413 163.651 202.897C161.035 201.38 158.832 199.244 157.236 196.677C157.236 196.677 149.019 204.093 151.788 211.123C151.788 211.123 156.907 216.845 163.4 216.647C163.4 216.647 154.983 223.903 148.806 223.69C148.806 223.69 142.203 228.802 149.658 229.655C154.578 230.075 159.521 230.153 164.452 229.889C165.863 229.832 167.244 229.465 168.496 228.813C169.749 228.161 170.843 227.241 171.699 226.119C175.444 221.198 182.393 210.773 190.312 192.587C190.871 191.353 191.177 190.02 191.214 188.665C191.251 187.311 191.016 185.963 190.525 184.7Z" fill="#020202"/>
<path d="M137.596 200.216C137.365 202.314 137.288 204.425 137.365 206.534C137.395 207.597 137.494 208.658 137.66 209.709C137.811 210.784 138.079 211.839 138.461 212.855C138.661 213.383 138.911 213.891 139.208 214.371C139.387 214.605 139.58 214.833 139.769 215.063C139.958 215.305 140.085 215.394 140.219 215.607C140.743 216.413 141.115 217.309 141.316 218.249C141.752 220.215 141.833 222.244 141.555 224.239C141.38 226.182 140.667 228.039 139.496 229.6C139.217 229.934 138.88 230.215 138.501 230.43C138.321 230.533 138.13 230.618 137.932 230.684C137.835 230.72 137.731 230.731 137.631 230.758L137.264 230.841C136.188 231.09 135.147 231.472 134.163 231.976C132.288 232.779 130.311 233.319 128.289 233.581L126.752 233.808L125.2 233.962C124.165 234.068 123.127 234.165 122.082 234.205C117.903 234.441 113.714 234.448 109.534 234.229C107.442 234.146 105.352 233.987 103.261 233.866C101.172 233.725 99.0864 233.505 97.0001 233.318C88.66 232.504 80.3323 231.581 72.0019 230.689L72.7867 231.431C72.797 231.482 72.7909 231.343 72.8086 231.273C72.8212 231.179 72.8409 231.086 72.8675 230.995C72.924 230.791 73.0012 230.592 73.0979 230.403C73.1944 230.197 73.3095 229.999 73.4418 229.814C73.5658 229.612 73.7083 229.422 73.8674 229.246C74.183 228.871 74.5223 228.517 74.8833 228.186C75.2831 227.876 75.6441 227.532 76.0695 227.243C77.7656 226.038 79.5905 225.025 81.5105 224.223C82.4556 223.766 83.4607 223.418 84.4333 223.009L87.4353 221.951C89.4849 221.281 91.5159 220.551 93.5404 219.799C97.6278 218.353 101.588 216.57 105.381 214.469C107.298 213.415 109.075 212.125 110.672 210.63C112.321 209.147 113.405 207.139 113.741 204.947C113.742 204.935 113.741 204.923 113.738 204.912C113.734 204.901 113.729 204.891 113.722 204.882C113.714 204.873 113.705 204.865 113.695 204.86C113.684 204.854 113.673 204.851 113.662 204.85C113.639 204.848 113.617 204.855 113.6 204.868C113.582 204.882 113.57 204.901 113.565 204.923C113.055 206.981 111.87 208.809 110.198 210.114C108.556 211.449 106.766 212.59 104.862 213.516C101.021 215.371 97.0577 216.961 92.9997 218.275C90.9741 218.961 88.9247 219.582 86.8848 220.234L83.7907 221.271C82.776 221.679 81.7395 222.019 80.7418 222.484C78.695 223.346 76.7508 224.434 74.9451 225.728C74.4796 226.042 74.0642 226.449 73.625 226.809C73.201 227.211 72.8043 227.641 72.4374 228.097C72.2421 228.325 72.0666 228.569 71.9126 228.828C71.7402 229.085 71.5899 229.356 71.4634 229.638C71.3233 229.932 71.2129 230.238 71.1338 230.553C71.0897 230.722 71.058 230.893 71.0391 231.066C71.0097 231.28 71.0084 231.497 71.0351 231.711C71.0564 231.902 71.143 232.08 71.2804 232.215C71.4178 232.35 71.5975 232.433 71.7892 232.451L71.8201 232.453C80.1776 233.213 88.5425 233.922 96.9336 234.26C99.0302 234.356 101.124 234.484 103.223 234.534C105.32 234.615 107.413 234.746 109.512 234.794C113.708 234.898 117.9 235.078 122.111 235.044C123.164 235.06 124.218 235.019 125.273 234.969L126.857 234.898L128.442 234.749C130.596 234.59 132.716 234.118 134.734 233.349C135.629 232.918 136.572 232.595 137.544 232.389L137.945 232.301C138.099 232.264 138.257 232.241 138.406 232.189C138.707 232.092 138.998 231.966 139.273 231.811C139.81 231.511 140.29 231.119 140.69 230.652C141.434 229.77 141.994 228.748 142.338 227.647C142.682 226.599 142.914 225.518 143.032 224.421C143.29 222.247 143.155 220.044 142.634 217.917C142.379 216.805 141.893 215.759 141.206 214.847C141.052 214.619 140.757 214.379 140.621 214.21L140.165 213.704C139.892 213.305 139.657 212.88 139.463 212.437C138.722 210.527 138.259 208.521 138.088 206.479C137.864 204.403 137.759 202.316 137.773 200.229C137.774 200.205 137.765 200.182 137.749 200.165C137.733 200.148 137.71 200.138 137.687 200.137C137.665 200.137 137.643 200.145 137.627 200.16C137.61 200.174 137.599 200.194 137.596 200.216Z" fill="#020202"/>
<path d="M131.553 211.762C131.612 213.16 131.347 214.553 130.778 215.831C130.488 216.438 130.089 216.986 129.602 217.449C129.082 217.94 128.523 218.389 127.932 218.791C128.689 218.695 129.413 218.418 130.042 217.984C130.7 217.544 131.229 216.936 131.574 216.223C131.917 215.517 132.09 214.741 132.079 213.956C132.08 213.193 131.9 212.441 131.553 211.762Z" fill="#020202"/>
<path d="M140.178 230.033C140.178 230.033 145.222 231.784 142.435 240.944C142.435 240.944 142.843 244.352 130.701 243.713L69.5678 243.792C69.5678 243.792 65.0426 233.79 74.441 231.829L89.7882 233.249C89.7882 233.249 85.9695 224.116 87.0346 221.134C88.6702 218.466 91.1443 216.416 94.0696 215.304C96.9949 214.193 100.206 214.083 103.201 214.991C103.201 214.991 102.57 229.647 113.867 234.656C113.867 234.656 130.483 233.82 140.178 230.033Z" fill="#020202"/>
<path d="M156.275 170.942C156.577 171.11 156.888 171.27 157.198 171.43C157.095 171.28 156.957 171.158 156.797 171.073C156.636 170.988 156.457 170.943 156.275 170.942Z" fill="white"/>
<path d="M79.4866 60.321C79.5586 62.9777 79.8143 65.6262 80.2521 68.2475C80.6607 70.8701 81.2363 73.4645 81.9058 76.0392C82.6 78.6181 83.4833 81.1423 84.5483 83.5915L85.4237 85.4039C85.7533 85.9924 86.1059 86.5699 86.4476 87.1463C86.8043 87.7156 87.2496 88.2411 87.6531 88.7722C88.1031 89.27 88.5878 89.7354 89.1035 90.1647L88.5648 89.3248C88.371 89.0629 88.2012 88.7841 88.0575 88.4917C87.7845 87.8911 87.4487 87.3435 87.2147 86.7327L86.4848 84.9265L85.8373 83.0848C85.0359 80.6057 84.2962 78.1023 83.618 75.5747L81.6024 67.9641C80.9354 65.4178 80.2626 62.8689 79.4866 60.321Z" fill="#020202"/>
<path d="M74.0947 98.8193C73.4331 100.665 72.8335 102.528 72.2162 104.387C71.59 106.243 71.0101 108.111 70.4216 109.977C69.258 113.713 68.1446 117.463 67.0567 121.22L67.2606 120.862C65.3279 122.811 63.3195 124.717 61.3199 126.613C59.3113 128.503 57.2733 130.359 55.2059 132.18C53.1301 133.99 51.0183 135.756 48.8187 137.403C46.6849 139.145 44.2656 140.504 41.668 141.42C43.0611 141.243 44.4161 140.84 45.6796 140.227C46.9602 139.653 48.1998 138.992 49.3896 138.248C51.7604 136.766 54.0365 135.138 56.2047 133.373C58.383 131.629 60.4778 129.789 62.5187 127.895C64.5667 126.004 66.5323 124.044 68.4679 122.024L68.4766 122.014C68.5701 121.916 68.6374 121.796 68.6721 121.665C69.6608 117.881 70.6243 114.09 71.5376 110.285C71.9874 108.38 72.4459 106.478 72.8584 104.564C73.2795 102.651 73.7184 100.744 74.0947 98.8193Z" fill="#020202"/>
<path d="M73.4295 133.287C80.041 129.107 86.4305 124.586 92.5719 119.742C96.7 110.246 94.883 89.0178 94.883 89.0178C94.883 89.0178 67.4937 88.0418 73.4295 133.287Z" fill="#020202"/>
<path d="M156.275 170.942C156.577 171.11 156.888 171.27 157.198 171.43C157.095 171.28 156.957 171.158 156.797 171.073C156.636 170.988 156.457 170.943 156.275 170.942Z" fill="white"/>
<path d="M134.241 90.3444C132.77 90.4957 131.305 90.6612 129.834 90.7769C128.367 90.922 126.899 91.0543 125.43 91.1498C122.493 91.3553 119.557 91.5734 116.617 91.5919C113.681 91.6929 110.742 91.6448 107.811 91.4479C107.076 91.4288 106.349 91.3312 105.618 91.2635C104.887 91.1942 104.155 91.1238 103.434 90.9897C102.711 90.8704 101.972 90.8055 101.256 90.6405C100.541 90.473 99.8206 90.3144 99.0947 90.1646C101.887 91.1752 104.795 91.8347 107.75 92.1279C108.488 92.2079 109.227 92.283 109.967 92.3403L112.19 92.4381C113.672 92.4898 115.154 92.5031 116.637 92.4782C119.6 92.385 122.557 92.1788 125.495 91.8262C128.435 91.4892 131.355 90.9945 134.241 90.3444Z" fill="#020202"/>
</svg>
