<svg width="261" height="27" viewBox="0 0 261 27" fill="none" xmlns="http://www.w3.org/2000/svg">
<path d="M16.207 16.448C20.4737 13.248 19.6417 5.99467 16.2497 3.73333C11.983 0.853334 2.98033 2.15467 1.12433 3.968C0.441667 6.54933 0.527 18.496 0.889667 20.3947C1.82833 25.216 6.69233 25.6853 8.463 23.744C8.69767 21.44 8.67633 18.1333 8.67633 17.7707C8.67633 17.7493 8.69767 17.728 8.69767 17.728C8.74033 17.7067 8.76167 17.7067 8.783 17.6853C8.80433 17.6853 8.80433 17.6853 8.82567 17.6853C9.14567 17.8987 12.9643 18.8587 16.207 16.448ZM11.9617 10.3893C11.9617 11.2427 11.663 11.6907 11.023 11.7973C10.4897 11.904 9.95633 11.8827 9.423 11.8827C9.33767 11.8827 9.18833 11.712 9.18833 11.6267C9.167 10.88 9.167 10.2827 9.167 9.38667C10.575 8.53333 11.9617 9.51467 11.9617 10.3893ZM34.2918 24.0213C37.2785 23.8293 39.7318 20.1813 38.0038 16.96C34.9958 16.5973 31.1132 16.5547 29.1718 16.704C29.2572 14.0373 29.2572 9.6 29.0012 7.08267C28.4252 1.856 23.4118 1.89867 21.4492 3.66933C20.6172 8.93867 20.9158 16.384 21.3638 19.392C21.9825 23.5733 25.4812 24.0213 27.6785 24.0213C27.6785 24.0213 31.2838 24.2133 34.2918 24.0213ZM39.887 17.6213C38.9697 22.464 41.3803 25.8133 46.6283 23.8933C46.927 22.784 47.2683 21.7173 47.631 20.8213C48.9963 20.864 50.4897 20.7787 51.8337 20.8427C53.519 26.688 60.0257 24.0427 60.3243 21.7173C59.5137 17.2373 57.231 9.664 56.079 6.848C53.647 0.917334 47.2897 2.26133 44.367 3.22133C43.0017 5.888 40.719 13.3333 39.887 17.6213ZM48.399 14.656C48.8043 12.9067 49.2097 11.2427 49.5937 9.55733C49.6577 9.55733 49.7217 9.55733 49.7857 9.536C50.191 11.2427 50.6177 12.928 51.023 14.656C50.1483 14.656 49.3163 14.656 48.399 14.656ZM67.5317 10.8587C67.4891 10.8373 67.4251 10.8373 67.3611 10.8373C67.2758 10.624 67.1904 10.432 67.1051 10.2187C66.3158 8.46933 65.0571 5.184 64.1398 3.47733C63.0304 1.38667 58.6144 1.536 57.1851 4.97067C58.6997 8.66133 61.4304 14.016 63.1584 17.3227C63.3077 17.6213 63.3717 17.792 63.3931 18.1547C63.3931 18.432 63.3504 20.224 63.3717 20.736C63.5637 25.3867 70.1984 24.6827 71.1158 23.4453C71.1158 23.1253 71.2011 20.2027 71.1797 18.3253C71.1797 17.8987 71.2864 17.536 71.4998 17.152C73.3771 13.0987 74.7851 11.136 76.1931 7.85067C77.8144 4.032 74.2091 1.70667 71.1584 2.53867C70.1344 4.50133 67.8944 10.0907 67.5317 10.8587ZM105.102 11.456C104.142 12.5867 103.097 13.7387 102.052 14.7627C101.39 14.144 100.772 13.504 100.26 12.864C100.452 12.736 101.604 11.8613 101.774 11.7547C104.334 9.70667 104.42 5.54667 101.604 3.69067C98.8944 1.92 93.9451 1.87733 91.2571 3.648C89.3158 4.88533 88.4197 7.21067 89.1237 9.36533C89.5291 10.688 90.1477 11.6693 91.3424 12.3733C89.8491 13.3333 88.1637 15.424 88.2917 17.664C88.5264 21.5253 90.9584 24.3627 96.4198 24.4267C98.0837 24.4267 99.6411 23.936 101.049 23.2533C101.198 23.4027 101.348 23.5733 101.476 23.744C103.929 26.2187 107.236 23.488 107.385 21.184C106.916 20.4373 106.425 19.7333 105.977 19.1147C107.15 17.664 108.004 16.32 108.452 15.5733C109.689 13.4827 107.214 11.1787 105.102 11.456ZM96.5691 7.12533C97.4224 7.12533 97.9557 7.616 97.9771 8.384C97.9771 9.13067 96.3984 10.0267 96.3984 10.0267C96.3984 10.0267 95.0544 9.19467 95.0544 8.384C95.0757 7.57333 95.6518 7.12533 96.5691 7.12533ZM96.2491 18.7093C94.4998 18.7307 93.1984 17.472 95.1824 15.7653C95.8438 16.4053 96.5904 17.3653 97.3798 18.4107C96.9531 18.6027 96.5904 18.688 96.2491 18.7093ZM139.116 2.70933C136.684 2.73067 127.746 2.60267 125.057 2.77333C121.004 3.02933 120.706 8.02133 122.071 9.792C123.457 10.0693 125.015 10.048 126.444 9.94133C126.38 14.016 126.572 18.432 126.786 19.6267C127.724 24.576 132.396 25.28 134.188 23.296C134.594 20.3733 134.743 13.9307 134.594 9.96267C134.7 9.96267 135.233 9.92 135.98 9.87733C140.759 9.57867 140.247 4.20267 139.116 2.70933ZM148.845 10.048C148.845 9.83467 148.973 7.808 148.781 5.93067C148.461 2.688 143.661 1.51467 140.824 3.86133C140.568 7.744 140.824 18.1333 140.994 20.48C141.357 25.728 147.736 24.5547 148.909 23.488C148.909 21.2693 148.909 19.0293 148.909 16.9387C150.317 16.9387 151.533 16.9387 152.898 16.9387C152.898 17.856 152.941 20.3093 153.09 21.4187C153.581 25.3013 159.938 24.5333 160.898 23.4667C160.941 22.976 160.962 21.952 160.962 21.2053C160.984 15.7867 160.984 8.98133 160.984 6.848C160.984 2.77333 155.778 1.45067 153.154 3.54133C152.962 4.69333 153.005 7.65867 152.941 10.048C151.576 10.048 150.253 10.048 148.845 10.048ZM162.486 19.072C162.656 21.9733 163.531 23.4027 165.536 23.9147C167.072 24.2773 172.641 24.2347 174.411 24C178.465 23.4667 179.019 19.776 177.398 17.4933C175.115 17.4933 172.832 17.4933 170.55 17.4933C170.379 17.4933 170.208 17.4933 170.059 17.4933C170.059 17.0453 170.059 16.6613 170.059 16.192C172.043 16.192 172.683 16.2347 173.771 16.192C176.907 16.0427 177.889 13.568 176.608 10.7307C174.795 10.1547 171.275 10.3893 170.038 10.3893C170.038 9.96267 170.038 9.62133 170.038 9.28C172.79 9.28 173.28 9.28 174.432 9.28C179.574 9.28 179.019 3.98933 178.23 2.85867C174.432 2.56 166.39 2.47467 162.827 2.83733C162.4 6.44267 162.315 16.1493 162.486 19.072ZM204.175 9.408C206.97 10.5387 210.789 8.384 209.722 4.30933C205.135 1.664 200.783 1.664 197.221 3.392C194.554 4.71467 192.591 6.57067 191.631 9.408C190.778 11.9253 190.863 14.464 191.567 16.9813C192.613 20.608 194.938 22.9973 198.65 23.9573C201.125 24.576 204.858 24.7253 207.141 23.6587C212.581 21.0987 210.618 15.936 207.61 15.36C207.098 15.68 205.263 16.896 203.813 17.088C201.637 17.408 199.546 16.5973 199.205 14.08C198.97 12.416 199.29 10.7947 200.805 9.856C201.957 9.13067 202.874 9.088 204.175 9.408ZM219.237 6.848C218.447 1.728 213.669 1.728 211.685 3.47733C211.002 6.08 211.237 17.856 211.599 19.7547C212.538 24.5547 217.21 25.2587 219.002 23.3173C219.493 19.7333 219.621 9.408 219.237 6.848ZM238.085 2.70933C235.653 2.73067 226.714 2.60267 224.026 2.77333C219.973 3.02933 219.674 8.02133 221.04 9.792C222.426 10.0693 223.984 10.048 225.413 9.94133C225.349 14.016 225.541 18.432 225.754 19.6267C226.693 24.576 231.365 25.28 233.157 23.296C233.562 20.3733 233.712 13.9307 233.562 9.96267C233.669 9.96267 234.202 9.92 234.949 9.87733C239.728 9.57867 239.216 4.20267 238.085 2.70933ZM250.063 10.8587C250.02 10.8373 249.956 10.8373 249.892 10.8373C249.807 10.624 249.722 10.432 249.636 10.2187C248.847 8.46933 247.588 5.184 246.671 3.47733C245.562 1.38667 241.146 1.536 239.716 4.97067C241.231 8.66133 243.962 14.016 245.69 17.3227C245.839 17.6213 245.903 17.792 245.924 18.1547C245.924 18.432 245.882 20.224 245.903 20.736C246.095 25.3867 252.73 24.6827 253.647 23.4453C253.647 23.1253 253.732 20.2027 253.711 18.3253C253.711 17.8987 253.818 17.536 254.031 17.152C255.908 13.0987 257.316 11.136 258.724 7.85067C260.346 4.032 256.74 1.70667 253.69 2.53867C252.666 4.50133 250.426 10.0907 250.063 10.8587Z" fill="black"/>
</svg>
