<svg width="284" height="236" viewBox="0 0 284 236" fill="none" xmlns="http://www.w3.org/2000/svg">
<path d="M192.53 158.47C192.237 158.177 191.763 158.177 191.47 158.47L186.697 163.243C186.404 163.536 186.404 164.01 186.697 164.303C186.99 164.596 187.464 164.596 187.757 164.303L192 160.061L196.243 164.303C196.536 164.596 197.01 164.596 197.303 164.303C197.596 164.01 197.596 163.536 197.303 163.243L192.53 158.47ZM191.47 229.53C191.763 229.823 192.237 229.823 192.53 229.53L197.303 224.757C197.596 224.464 197.596 223.99 197.303 223.697C197.01 223.404 196.536 223.404 196.243 223.697L192 227.939L187.757 223.697C187.464 223.404 186.99 223.404 186.697 223.697C186.404 223.99 186.404 224.464 186.697 224.757L191.47 229.53ZM191.25 159L191.25 160.944L192.75 160.944L192.75 159L191.25 159ZM191.25 164.833L191.25 168.722L192.75 168.722L192.75 164.833L191.25 164.833ZM191.25 172.611L191.25 176.5L192.75 176.5L192.75 172.611L191.25 172.611ZM191.25 180.389L191.25 184.278L192.75 184.278L192.75 180.389L191.25 180.389ZM191.25 188.167L191.25 192.056L192.75 192.056L192.75 188.167L191.25 188.167ZM191.25 195.944L191.25 199.833L192.75 199.833L192.75 195.944L191.25 195.944ZM191.25 203.722L191.25 207.611L192.75 207.611L192.75 203.722L191.25 203.722ZM191.25 211.5L191.25 215.389L192.75 215.389L192.75 211.5L191.25 211.5ZM191.25 219.278L191.25 223.167L192.75 223.167L192.75 219.278L191.25 219.278ZM191.25 227.056L191.25 229L192.75 229L192.75 227.056L191.25 227.056Z" fill="white"/>
<path d="M233.53 2.36957C233.237 2.07668 232.763 2.07668 232.47 2.36957L227.697 7.14254C227.404 7.43544 227.404 7.91031 227.697 8.2032C227.99 8.4961 228.464 8.4961 228.757 8.2032L233 3.96056L237.243 8.2032C237.536 8.4961 238.01 8.4961 238.303 8.2032C238.596 7.91031 238.596 7.43544 238.303 7.14254L233.53 2.36957ZM232.47 154.43C232.763 154.723 233.237 154.723 233.53 154.43L238.303 149.657C238.596 149.364 238.596 148.889 238.303 148.597C238.01 148.304 237.536 148.304 237.243 148.597L233 152.839L228.757 148.597C228.464 148.304 227.99 148.304 227.697 148.597C227.404 148.889 227.404 149.364 227.697 149.657L232.47 154.43ZM232.25 2.8999L232.25 4.88674L233.75 4.88674L233.75 2.8999L232.25 2.8999ZM232.25 8.86043L232.25 12.8341L233.75 12.8341L233.75 8.86043L232.25 8.86043ZM232.25 16.8078L232.25 20.7815L233.75 20.7815L233.75 16.8078L232.25 16.8078ZM232.25 24.7552L232.25 28.7289L233.75 28.7289L233.75 24.7552L232.25 24.7552ZM232.25 32.7025L232.25 36.6762L233.75 36.6762L233.75 32.7025L232.25 32.7025ZM232.25 40.6499L232.25 44.6236L233.75 44.6236L233.75 40.6499L232.25 40.6499ZM232.25 48.5973L232.25 52.5709L233.75 52.5709L233.75 48.5973L232.25 48.5973ZM232.25 56.5446L232.25 60.5183L233.75 60.5183L233.75 56.5446L232.25 56.5446ZM232.25 64.492L232.25 68.4657L233.75 68.4657L233.75 64.492L232.25 64.492ZM232.25 72.4394L232.25 76.4131L233.75 76.4131L233.75 72.4394L232.25 72.4394ZM232.25 80.3867L232.25 84.3604L233.75 84.3604L233.75 80.3867L232.25 80.3867ZM232.25 88.3341L232.25 92.3078L233.75 92.3078L233.75 88.3341L232.25 88.3341ZM232.25 96.2815L232.25 100.255L233.75 100.255L233.75 96.2815L232.25 96.2815ZM232.25 104.229L232.25 108.203L233.75 108.203L233.75 104.229L232.25 104.229ZM232.25 112.176L232.25 116.15L233.75 116.15L233.75 112.176L232.25 112.176ZM232.25 120.124L232.25 124.097L233.75 124.097L233.75 120.124L232.25 120.124ZM232.25 128.071L232.25 132.045L233.75 132.045L233.75 128.071L232.25 128.071ZM232.25 136.018L232.25 139.992L233.75 139.992L233.75 136.018L232.25 136.018ZM232.25 143.966L232.25 147.939L233.75 147.939L233.75 143.966L232.25 143.966ZM232.25 151.913L232.25 153.9L233.75 153.9L233.75 151.913L232.25 151.913Z" fill="white"/>
<path opacity="0.4" d="M65.2951 2.14991C64.8809 2.15199 64.5468 2.48946 64.5488 2.90367L64.5828 9.65359C64.5848 10.0678 64.9223 10.4019 65.3365 10.3998C65.7507 10.3977 66.0848 10.0603 66.0827 9.64605L66.0526 3.64612L72.0525 3.61597C72.4667 3.61389 72.8008 3.27642 72.7987 2.86221C72.7967 2.44801 72.4592 2.11391 72.045 2.11599L65.2951 2.14991ZM218.117 154.936C218.531 154.934 218.865 154.597 218.863 154.182L218.829 147.433C218.827 147.018 218.49 146.684 218.076 146.686C217.661 146.688 217.327 147.026 217.329 147.44L217.36 153.44L211.36 153.47C210.945 153.472 210.611 153.81 210.613 154.224C210.615 154.638 210.953 154.972 211.367 154.97L218.117 154.936ZM64.7712 3.43289L65.1169 3.77517L66.1722 2.70919L65.8265 2.36691L64.7712 3.43289ZM67.1913 5.82883L71.3401 9.93615L72.3954 8.87017L68.2466 4.76285L67.1913 5.82883ZM73.4145 11.9898L74.106 12.6744L75.1613 11.6084L74.4698 10.9238L73.4145 11.9898ZM76.1804 14.728L80.3292 18.8353L81.3845 17.7694L77.2357 13.662L76.1804 14.728ZM82.4036 20.889L83.0951 21.5736L84.1504 20.5076L83.4589 19.823L82.4036 20.889ZM85.1695 23.6272L89.3183 27.7345L90.3736 26.6686L86.2248 22.5612L85.1695 23.6272ZM91.3927 29.7882L92.0842 30.4728L93.1395 29.4068L92.448 28.7222L91.3927 29.7882ZM94.1586 32.5264L98.3074 36.6337L99.3627 35.5678L95.2139 31.4604L94.1586 32.5264ZM100.382 38.6874L101.073 39.372L102.129 38.306L101.437 37.6214L100.382 38.6874ZM103.148 41.4256L107.296 45.5329L108.352 44.467L104.203 40.3596L103.148 41.4256ZM109.371 47.5866L110.062 48.2712L111.118 47.2052L110.426 46.5206L109.371 47.5866ZM112.137 50.3248L116.286 54.4321L117.341 53.3662L113.192 49.2588L112.137 50.3248ZM118.36 56.4858L119.051 57.1704L120.107 56.1044L119.415 55.4198L118.36 56.4858ZM121.126 59.224L125.275 63.3313L126.33 62.2654L122.181 58.158L121.126 59.224ZM127.349 65.385L128.041 66.0696L129.096 65.0036L128.404 64.319L127.349 65.385ZM130.115 68.1232L134.264 72.2305L135.319 71.1646L131.17 67.0572L130.115 68.1232ZM136.338 74.2842L137.03 74.9688L138.085 73.9028L137.393 73.2182L136.338 74.2842ZM139.104 77.0224L143.253 81.1298L144.308 80.0638L140.159 75.9565L139.104 77.0224ZM145.327 83.1834L146.019 83.868L147.074 82.802L146.383 82.1174L145.327 83.1834ZM148.093 85.9216L152.242 90.029L153.297 88.963L149.148 84.8557L148.093 85.9216ZM154.316 92.0826L155.008 92.7672L156.063 91.7012L155.372 91.0166L154.316 92.0826ZM157.082 94.8208L161.231 98.9282L162.286 97.8622L158.138 93.7549L157.082 94.8208ZM163.305 100.982L163.997 101.666L165.052 100.6L164.361 99.9158L163.305 100.982ZM166.071 103.72L170.22 107.827L171.275 106.761L167.127 102.654L166.071 103.72ZM172.295 109.881L172.986 110.566L174.041 109.5L173.35 108.815L172.295 109.881ZM175.06 112.619L179.209 116.727L180.265 115.661L176.116 111.553L175.06 112.619ZM181.284 118.78L181.975 119.465L183.03 118.399L182.339 117.714L181.284 118.78ZM184.049 121.518L188.198 125.626L189.254 124.56L185.105 120.452L184.049 121.518ZM190.273 127.679L190.964 128.364L192.019 127.298L191.328 126.613L190.273 127.679ZM193.039 130.418L197.187 134.525L198.243 133.459L194.094 129.352L193.039 130.418ZM199.262 136.579L199.953 137.263L201.009 136.197L200.317 135.513L199.262 136.579ZM202.028 139.317L206.176 143.424L207.232 142.358L203.083 138.251L202.028 139.317ZM208.251 145.478L208.942 146.162L209.998 145.096L209.306 144.412L208.251 145.478ZM211.017 148.216L215.166 152.323L216.221 151.257L212.072 147.15L211.017 148.216ZM217.24 154.377L217.586 154.719L218.641 153.653L218.295 153.311L217.24 154.377Z" fill="white"/>
<path opacity="0.4" d="M216.819 2.36957L216.475 2.71358L217.536 3.77424L217.88 3.43023L216.819 2.36957ZM214.411 4.77764L210.283 8.90576L211.344 9.96642L215.472 5.8383L214.411 4.77764ZM208.219 10.9698L207.531 11.6578L208.592 12.7185L209.28 12.0305L208.219 10.9698ZM205.467 13.7219L201.339 17.85L202.399 18.9107L206.528 14.7826L205.467 13.7219ZM199.275 19.9141L198.587 20.6021L199.647 21.6628L200.335 20.9747L199.275 19.9141ZM196.523 22.6661L192.395 26.7943L193.455 27.8549L197.583 23.7268L196.523 22.6661ZM190.331 28.8583L189.643 29.5464L190.703 30.607L191.391 29.919L190.331 28.8583ZM187.578 31.6104L183.45 35.7385L184.511 36.7992L188.639 32.6711L187.578 31.6104ZM181.386 37.8026L180.698 38.4906L181.759 39.5513L182.447 38.8632L181.386 37.8026ZM178.634 40.5547L174.506 44.6828L175.567 45.7434L179.695 41.6153L178.634 40.5547ZM172.442 46.7468L171.754 47.4349L172.815 48.4955L173.503 47.8075L172.442 46.7468ZM169.69 49.4989L165.562 53.627L166.622 54.6877L170.751 50.5596L169.69 49.4989ZM163.498 55.6911L162.81 56.3791L163.87 57.4398L164.558 56.7518L163.498 55.6911ZM160.746 58.4432L156.618 62.5713L157.678 63.632L161.806 59.5038L160.746 58.4432ZM154.553 64.6354L153.865 65.3234L154.926 66.384L155.614 65.696L154.553 64.6354ZM151.801 67.3874L147.673 71.5156L148.734 72.5762L152.862 68.4481L151.801 67.3874ZM145.609 73.5796L144.921 74.2676L145.982 75.3283L146.67 74.6403L145.609 73.5796ZM142.857 76.3317L138.729 80.4598L139.79 81.5205L143.918 77.3924L142.857 76.3317ZM136.665 82.5239L135.977 83.2119L137.038 84.2726L137.726 83.5845L136.665 82.5239ZM133.913 85.276L129.785 89.4041L130.845 90.4647L134.974 86.3366L133.913 85.276ZM127.721 91.4681L127.033 92.1562L128.093 93.2168L128.781 92.5288L127.721 91.4681ZM124.969 94.2202L120.841 98.3483L121.901 99.409L126.029 95.2809L124.969 94.2202ZM118.776 100.412L118.088 101.1L119.149 102.161L119.837 101.473L118.776 100.412ZM116.024 103.164L111.896 107.293L112.957 108.353L117.085 104.225L116.024 103.164ZM109.832 109.357L109.144 110.045L110.205 111.105L110.893 110.417L109.832 109.357ZM107.08 112.109L102.952 116.237L104.013 117.298L108.141 113.169L107.08 112.109ZM100.888 118.301L100.2 118.989L101.261 120.05L101.949 119.362L100.888 118.301ZM98.1358 121.053L94.0077 125.181L95.0684 126.242L99.1965 122.114L98.1358 121.053ZM91.9437 127.245L91.2556 127.933L92.3163 128.994L93.0043 128.306L91.9437 127.245ZM89.1916 129.997L85.0635 134.125L86.1241 135.186L90.2522 131.058L89.1916 129.997ZM82.9994 136.189L82.3114 136.877L83.372 137.938L84.0601 137.25L82.9994 136.189ZM80.2473 138.942L76.1192 143.07L77.1799 144.13L81.308 140.002L80.2473 138.942ZM74.0551 145.134L73.3671 145.822L74.4278 146.882L75.1158 146.194L74.0551 145.134ZM71.3031 147.886L67.1749 152.014L68.2356 153.075L72.3637 148.946L71.3031 147.886ZM65.1109 154.078L64.7669 154.422L65.8276 155.483L66.1715 155.139L65.1109 154.078Z" fill="white"/>
<path d="M65.2977 154.186H218.112L279.238 233.65H4.17188L65.2977 154.186Z" stroke="white" stroke-width="4"/>
<path d="M65.2988 155.714V2.8999H218.113V155.714" stroke="white" stroke-width="4"/>
<path d="M101.499 185.809V198.9H99.5303V187.496H93.3683V198.9H91.3996V185.809H101.499ZM104.366 202.582V189.082H106.232V190.673H106.392C106.503 190.469 106.663 190.232 106.872 189.964C107.08 189.695 107.37 189.461 107.741 189.261C108.112 189.056 108.602 188.954 109.211 188.954C110.004 188.954 110.711 189.154 111.333 189.555C111.955 189.955 112.443 190.533 112.797 191.287C113.155 192.041 113.334 192.949 113.334 194.01C113.334 195.071 113.157 195.981 112.803 196.739C112.45 197.494 111.964 198.075 111.346 198.484C110.728 198.889 110.023 199.092 109.23 199.092C108.634 199.092 108.146 198.992 107.766 198.791C107.391 198.591 107.097 198.357 106.884 198.088C106.671 197.82 106.507 197.581 106.392 197.372H106.277V202.582H104.366ZM106.239 193.991C106.239 194.681 106.339 195.286 106.539 195.806C106.739 196.326 107.029 196.733 107.408 197.027C107.788 197.317 108.252 197.462 108.802 197.462C109.373 197.462 109.85 197.31 110.234 197.008C110.617 196.701 110.907 196.286 111.103 195.761C111.303 195.237 111.403 194.647 111.403 193.991C111.403 193.343 111.305 192.761 111.109 192.246C110.918 191.73 110.628 191.323 110.24 191.025C109.857 190.727 109.377 190.577 108.802 190.577C108.248 190.577 107.779 190.72 107.396 191.006C107.016 191.291 106.729 191.69 106.533 192.201C106.337 192.712 106.239 193.309 106.239 193.991ZM117.348 196.222L121.676 189.082H123.734V198.9H121.861V191.754L117.553 198.9H115.475V189.082H117.348V196.222ZM132.58 189.082V190.731H128.189V198.9H126.303V189.082H132.58ZM138.279 199.098C137.358 199.098 136.555 198.887 135.869 198.465C135.183 198.043 134.65 197.453 134.271 196.695C133.892 195.936 133.702 195.05 133.702 194.036C133.702 193.017 133.892 192.126 134.271 191.364C134.65 190.601 135.183 190.009 135.869 189.587C136.555 189.165 137.358 188.954 138.279 188.954C139.199 188.954 140.003 189.165 140.689 189.587C141.375 190.009 141.907 190.601 142.287 191.364C142.666 192.126 142.856 193.017 142.856 194.036C142.856 195.05 142.666 195.936 142.287 196.695C141.907 197.453 141.375 198.043 140.689 198.465C140.003 198.887 139.199 199.098 138.279 199.098ZM138.285 197.494C138.882 197.494 139.376 197.336 139.768 197.021C140.16 196.705 140.45 196.286 140.638 195.761C140.829 195.237 140.925 194.66 140.925 194.029C140.925 193.403 140.829 192.827 140.638 192.303C140.45 191.775 140.16 191.351 139.768 191.031C139.376 190.712 138.882 190.552 138.285 190.552C137.684 190.552 137.186 190.712 136.79 191.031C136.397 191.351 136.106 191.775 135.914 192.303C135.726 192.827 135.633 193.403 135.633 194.029C135.633 194.66 135.726 195.237 135.914 195.761C136.106 196.286 136.397 196.705 136.79 197.021C137.186 197.336 137.684 197.494 138.285 197.494ZM144.989 202.582V189.082H146.855V190.673H147.015C147.126 190.469 147.286 190.232 147.495 189.964C147.703 189.695 147.993 189.461 148.364 189.261C148.735 189.056 149.225 188.954 149.834 188.954C150.627 188.954 151.334 189.154 151.956 189.555C152.578 189.955 153.066 190.533 153.42 191.287C153.778 192.041 153.957 192.949 153.957 194.01C153.957 195.071 153.78 195.981 153.426 196.739C153.073 197.494 152.587 198.075 151.969 198.484C151.351 198.889 150.646 199.092 149.853 199.092C149.257 199.092 148.769 198.992 148.389 198.791C148.014 198.591 147.72 198.357 147.507 198.088C147.294 197.82 147.13 197.581 147.015 197.372H146.9V202.582H144.989ZM146.862 193.991C146.862 194.681 146.962 195.286 147.162 195.806C147.362 196.326 147.652 196.733 148.032 197.027C148.411 197.317 148.875 197.462 149.425 197.462C149.996 197.462 150.473 197.31 150.857 197.008C151.24 196.701 151.53 196.286 151.726 195.761C151.926 195.237 152.027 194.647 152.027 193.991C152.027 193.343 151.929 192.761 151.733 192.246C151.541 191.73 151.251 191.323 150.863 191.025C150.48 190.727 150 190.577 149.425 190.577C148.871 190.577 148.402 190.72 148.019 191.006C147.639 191.291 147.352 191.69 147.156 192.201C146.96 192.712 146.862 193.309 146.862 193.991ZM160.234 199.098C159.313 199.098 158.51 198.887 157.824 198.465C157.138 198.043 156.605 197.453 156.226 196.695C155.847 195.936 155.657 195.05 155.657 194.036C155.657 193.017 155.847 192.126 156.226 191.364C156.605 190.601 157.138 190.009 157.824 189.587C158.51 189.165 159.313 188.954 160.234 188.954C161.154 188.954 161.958 189.165 162.644 189.587C163.33 190.009 163.862 190.601 164.242 191.364C164.621 192.126 164.811 193.017 164.811 194.036C164.811 195.05 164.621 195.936 164.242 196.695C163.862 197.453 163.33 198.043 162.644 198.465C161.958 198.887 161.154 199.098 160.234 199.098ZM160.24 197.494C160.837 197.494 161.331 197.336 161.723 197.021C162.115 196.705 162.405 196.286 162.593 195.761C162.784 195.237 162.88 194.66 162.88 194.029C162.88 193.403 162.784 192.827 162.593 192.303C162.405 191.775 162.115 191.351 161.723 191.031C161.331 190.712 160.837 190.552 160.24 190.552C159.639 190.552 159.141 190.712 158.745 191.031C158.353 191.351 158.061 191.775 157.869 192.303C157.681 192.827 157.588 193.403 157.588 194.029C157.588 194.66 157.681 195.237 157.869 195.761C158.061 196.286 158.353 196.705 158.745 197.021C159.141 197.336 159.639 197.494 160.24 197.494ZM165.985 201.732V197.244H166.784C166.989 197.057 167.161 196.833 167.302 196.573C167.447 196.313 167.568 196.004 167.666 195.646C167.769 195.288 167.854 194.871 167.922 194.394C167.99 193.912 168.05 193.362 168.101 192.744L168.408 189.082H175.081V197.244H176.59V201.732H174.723V198.9H167.877V201.732H165.985ZM168.83 197.244H173.215V190.718H170.121L169.916 192.744C169.818 193.776 169.695 194.67 169.546 195.429C169.396 196.183 169.158 196.788 168.83 197.244Z" fill="white"/>
<path d="M208.226 185.809V198.9H206.244V187.791H206.168L203.036 189.836V187.944L206.302 185.809H208.226ZM222.066 196.535L225.237 189.082H226.886L222.776 198.9H221.357L217.33 189.082H218.96L222.066 196.535ZM218.429 189.082V198.9H216.556V189.082H218.429ZM225.754 198.9V189.082H227.615V198.9H225.754Z" fill="white"/>
<path d="M245.259 78.8999V77.4681L249.689 72.8786C250.162 72.38 250.552 71.9432 250.859 71.5682C251.17 71.189 251.402 70.8289 251.555 70.488C251.709 70.1471 251.786 69.7848 251.786 69.4013C251.786 68.9667 251.683 68.5917 251.479 68.2763C251.274 67.9567 250.995 67.7117 250.641 67.5412C250.288 67.3665 249.889 67.2792 249.446 67.2792C248.977 67.2792 248.568 67.375 248.219 67.5668C247.869 67.7586 247.601 68.0292 247.413 68.3786C247.226 68.728 247.132 69.1371 247.132 69.6059H245.246C245.246 68.809 245.43 68.1123 245.796 67.5157C246.163 66.9191 246.665 66.4567 247.305 66.1286C247.944 65.7962 248.67 65.63 249.484 65.63C250.307 65.63 251.031 65.7941 251.658 66.1222C252.288 66.4461 252.781 66.8892 253.134 67.4517C253.488 68.01 253.665 68.6407 253.665 69.3438C253.665 69.8296 253.573 70.3047 253.39 70.7692C253.211 71.2337 252.898 71.7515 252.45 72.3225C252.003 72.8892 251.381 73.5775 250.584 74.3871L247.982 77.1101V77.206H253.876V78.8999H245.259ZM266.597 76.5348L269.768 69.0817H271.417L267.307 78.8999H265.888L261.861 69.0817H263.491L266.597 76.5348ZM262.96 69.0817V78.8999H261.088V69.0817H262.96ZM270.286 78.8999V69.0817H272.146V78.8999H270.286Z" fill="white"/>
<path d="M124.461 23.809V25.5093H118.274V36.8999H116.299V23.809H124.461ZM129.246 37.0981C128.325 37.0981 127.522 36.8871 126.836 36.4652C126.15 36.0434 125.617 35.4532 125.238 34.6946C124.859 33.9361 124.669 33.0498 124.669 32.0356C124.669 31.0171 124.859 30.1265 125.238 29.3637C125.617 28.6009 126.15 28.0086 126.836 27.5867C127.522 27.1648 128.325 26.9539 129.246 26.9539C130.166 26.9539 130.969 27.1648 131.655 27.5867C132.342 28.0086 132.874 28.6009 133.253 29.3637C133.633 30.1265 133.822 31.0171 133.822 32.0356C133.822 33.0498 133.633 33.9361 133.253 34.6946C132.874 35.4532 132.342 36.0434 131.655 36.4652C130.969 36.8871 130.166 37.0981 129.246 37.0981ZM129.252 35.4937C129.849 35.4937 130.343 35.336 130.735 35.0206C131.127 34.7053 131.417 34.2856 131.604 33.7614C131.796 33.2373 131.892 32.6598 131.892 32.0292C131.892 31.4027 131.796 30.8275 131.604 30.3033C131.417 29.7749 131.127 29.3509 130.735 29.0313C130.343 28.7117 129.849 28.5519 129.252 28.5519C128.651 28.5519 128.153 28.7117 127.756 29.0313C127.364 29.3509 127.072 29.7749 126.881 30.3033C126.693 30.8275 126.599 31.4027 126.599 32.0292C126.599 32.6598 126.693 33.2373 126.881 33.7614C127.072 34.2856 127.364 34.7053 127.756 35.0206C128.153 35.336 128.651 35.4937 129.252 35.4937ZM135.956 40.5817V27.0817H137.822V28.6733H137.982C138.093 28.4688 138.253 28.2323 138.461 27.9638C138.67 27.6954 138.96 27.461 139.331 27.2607C139.701 27.0562 140.191 26.9539 140.801 26.9539C141.593 26.9539 142.301 27.1542 142.923 27.5547C143.545 27.9553 144.033 28.5327 144.387 29.287C144.745 30.0412 144.924 30.9489 144.924 32.01C144.924 33.0711 144.747 33.9809 144.393 34.7394C144.04 35.4937 143.554 36.0753 142.936 36.4844C142.318 36.8892 141.613 37.0917 140.82 37.0917C140.223 37.0917 139.736 36.9915 139.356 36.7912C138.981 36.591 138.687 36.3566 138.474 36.0881C138.261 35.8196 138.097 35.581 137.982 35.3722H137.867V40.5817H135.956ZM137.829 31.9908C137.829 32.6812 137.929 33.2863 138.129 33.8062C138.329 34.326 138.619 34.733 138.998 35.027C139.378 35.3168 139.842 35.4617 140.392 35.4617C140.963 35.4617 141.44 35.3104 141.824 35.0079C142.207 34.701 142.497 34.2856 142.693 33.7614C142.893 33.2373 142.993 32.6471 142.993 31.9908C142.993 31.3431 142.895 30.7614 142.699 30.2458C142.508 29.7302 142.218 29.3232 141.83 29.0249C141.446 28.7266 140.967 28.5775 140.392 28.5775C139.838 28.5775 139.369 28.7202 138.986 29.0057C138.606 29.2912 138.319 29.6897 138.123 30.201C137.927 30.7124 137.829 31.309 137.829 31.9908ZM151.201 37.0981C150.28 37.0981 149.477 36.8871 148.791 36.4652C148.105 36.0434 147.572 35.4532 147.193 34.6946C146.814 33.9361 146.624 33.0498 146.624 32.0356C146.624 31.0171 146.814 30.1265 147.193 29.3637C147.572 28.6009 148.105 28.0086 148.791 27.5867C149.477 27.1648 150.28 26.9539 151.201 26.9539C152.121 26.9539 152.924 27.1648 153.611 27.5867C154.297 28.0086 154.829 28.6009 155.209 29.3637C155.588 30.1265 155.777 31.0171 155.777 32.0356C155.777 33.0498 155.588 33.9361 155.209 34.6946C154.829 35.4532 154.297 36.0434 153.611 36.4652C152.924 36.8871 152.121 37.0981 151.201 37.0981ZM151.207 35.4937C151.804 35.4937 152.298 35.336 152.69 35.0206C153.082 34.7053 153.372 34.2856 153.559 33.7614C153.751 33.2373 153.847 32.6598 153.847 32.0292C153.847 31.4027 153.751 30.8275 153.559 30.3033C153.372 29.7749 153.082 29.3509 152.69 29.0313C152.298 28.7117 151.804 28.5519 151.207 28.5519C150.606 28.5519 150.108 28.7117 149.711 29.0313C149.319 29.3509 149.027 29.7749 148.836 30.3033C148.648 30.8275 148.554 31.4027 148.554 32.0292C148.554 32.6598 148.648 33.2373 148.836 33.7614C149.027 34.2856 149.319 34.7053 149.711 35.0206C150.108 35.336 150.606 35.4937 151.207 35.4937ZM156.952 39.7316V35.2444H157.751C157.956 35.0569 158.128 34.8331 158.269 34.5732C158.414 34.3133 158.535 34.0043 158.633 33.6464C158.735 33.2884 158.821 32.8708 158.889 32.3935C158.957 31.912 159.017 31.3623 159.068 30.7444L159.375 27.0817H166.048V35.2444H167.556V39.7316H165.69V36.8999H158.844V39.7316H156.952ZM159.796 35.2444H164.181V28.7181H161.088L160.883 30.7444C160.785 31.7756 160.661 32.6705 160.512 33.429C160.363 34.1833 160.125 34.7884 159.796 35.2444Z" fill="white"/>
<rect x="140" y="79" width="2" height="75" fill="white"/>
<rect x="157.268" y="61" width="3.42249" height="45.6332" transform="rotate(45 157.268 61)" fill="white"/>
</svg>
