<svg width="48" height="48" viewBox="0 0 48 48" fill="none" xmlns="http://www.w3.org/2000/svg">
<path d="M31.8414 1.36767L30.2994 5.51066L28.8973 4.98729L30.4393 0.844296L31.8414 1.36767ZM32.8364 3.44545L32.4219 4.55662L30.3392 3.78065L30.7537 2.66948L32.8364 3.44545ZM34.2701 2.27185L32.7281 6.41485L31.3361 5.89732L32.8781 1.75433L34.2701 2.27185Z" fill="#4DCAFF"/>
<path d="M34.1197 7.36921C33.8844 7.21306 33.7037 7.03714 33.5741 6.8407C33.446 6.64383 33.3826 6.43304 33.3852 6.2063C33.3878 5.97955 33.4705 5.74504 33.6325 5.49958C33.7667 5.29751 33.915 5.14817 34.079 5.05112C34.2431 4.95408 34.4171 4.90061 34.5994 4.89113C34.7834 4.88122 34.972 4.90775 35.168 4.96826C35.364 5.02877 35.5616 5.11453 35.7613 5.22714C35.9783 5.34708 36.1568 5.43798 36.2978 5.4978C36.4388 5.55763 36.5508 5.58584 36.635 5.58042C36.7191 5.575 36.7843 5.53699 36.8308 5.468L36.8367 5.45787C36.9001 5.36211 36.9133 5.26439 36.8727 5.16396C36.832 5.06353 36.7556 4.97614 36.6407 4.89902C36.5137 4.81488 36.3935 4.77517 36.2776 4.77711C36.1617 4.77906 36.0579 4.83256 35.9674 4.93559L34.749 4.12666C34.9127 3.91326 35.1218 3.75448 35.3744 3.64913C35.627 3.54378 35.9137 3.51489 36.2351 3.56407C36.556 3.61165 36.8983 3.75798 37.2646 4.00061C37.5287 4.17473 37.7453 4.36329 37.9136 4.56309C38.0818 4.7629 38.2032 4.9667 38.2777 5.1745C38.3522 5.38229 38.3789 5.58407 38.3602 5.7826C38.3411 5.97953 38.2744 6.16522 38.1609 6.33604L36.4877 8.85822L35.2507 8.03717L35.5945 7.51861L35.5653 7.49904C35.4007 7.58767 35.2383 7.63974 35.0765 7.6557C34.9163 7.67123 34.7556 7.65266 34.5967 7.60276C34.4398 7.55403 34.28 7.47526 34.1197 7.36921ZM35.1046 6.82105C35.2048 6.88838 35.3134 6.92949 35.4297 6.94801C35.5455 6.96492 35.6588 6.95339 35.7661 6.91267C35.8733 6.87195 35.9654 6.79417 36.0402 6.68338L36.244 6.37702C36.199 6.36855 36.153 6.35688 36.1051 6.34404C36.0571 6.33121 36.0083 6.31517 35.957 6.29637C35.9058 6.27757 35.8525 6.2576 35.7967 6.23486C35.741 6.21212 35.6848 6.18779 35.6262 6.16068C35.513 6.10882 35.4126 6.0792 35.3234 6.07227C35.2342 6.06534 35.157 6.07747 35.0918 6.10866C35.0265 6.13985 34.9723 6.1869 34.9297 6.25141C34.8612 6.35367 34.8457 6.45545 34.8819 6.55876C34.9182 6.66207 34.9938 6.74627 35.1046 6.82105Z" fill="#4DCAFF"/>
<path d="M36.8342 9.1592L40.0456 6.12211L41.3744 7.52824C41.7824 7.95835 42.0292 8.36829 42.1171 8.75401C42.2051 9.13973 42.1024 9.47208 41.8098 9.74742C41.6514 9.89773 41.4443 9.96179 41.19 9.93918C40.9357 9.91656 40.6644 9.79231 40.3734 9.56889C40.5919 9.82202 40.7331 10.0616 40.7999 10.2852C40.865 10.5092 40.8744 10.7104 40.8253 10.8914C40.7774 11.0704 40.692 11.2183 40.5688 11.3335C40.3734 11.5177 40.1608 11.6192 39.9281 11.6387C39.6969 11.6579 39.4488 11.5942 39.188 11.4517C38.9268 11.3077 38.6535 11.0863 38.3688 10.7842L36.8342 9.1592ZM38.6566 9.46206L39.1778 10.0143C39.266 10.1071 39.3572 10.1597 39.4528 10.1717C39.5485 10.1838 39.6342 10.1522 39.7136 10.0779C39.7942 10.0015 39.8324 9.9142 39.8272 9.81799C39.8215 9.72018 39.7758 9.62626 39.6872 9.53185L39.1659 8.97965L38.6566 9.46206ZM39.754 8.42651L40.1023 8.79382C40.1595 8.85385 40.2168 8.89502 40.275 8.92053C40.3327 8.94443 40.391 8.95108 40.4466 8.94132C40.5038 8.93113 40.5563 8.90337 40.6041 8.85803C40.6779 8.78858 40.7086 8.70501 40.697 8.61051C40.6849 8.51442 40.6316 8.41741 40.5384 8.31906L40.2227 7.98411L39.754 8.42651Z" fill="#4DCAFF"/>
<path d="M40.8439 14.2957C40.6075 13.8864 40.4825 13.4901 40.4684 13.1051C40.4543 12.7202 40.5501 12.3623 40.7528 12.0322C40.9554 11.7022 41.2631 11.4194 41.6751 11.1806C42.0708 10.9513 42.4615 10.8312 42.8489 10.8199C43.2362 10.8085 43.5964 10.9004 43.9294 11.0954C44.2625 11.2905 44.5423 11.5871 44.7712 11.9813C44.9377 12.2706 45.0453 12.5569 45.0914 12.8442C45.1372 13.1299 45.1238 13.4058 45.0492 13.6707C44.9747 13.9355 44.8424 14.1833 44.6521 14.4124C44.4618 14.6415 44.2149 14.8447 43.911 15.0203L43.5924 15.205L41.6151 11.7875L42.3728 11.3498L43.6174 13.5029C43.7266 13.4377 43.8071 13.3545 43.8599 13.2513C43.9127 13.1481 43.9365 13.0389 43.9305 12.9207C43.9261 12.802 43.8901 12.6866 43.8236 12.5726C43.7595 12.4613 43.6758 12.3724 43.576 12.3067C43.4746 12.2414 43.3673 12.2051 43.252 12.1966C43.1367 12.1881 43.0224 12.2153 42.9087 12.2766L42.0919 12.7489C41.9687 12.8195 41.8748 12.9098 41.8076 13.0169C41.7404 13.1239 41.7087 13.242 41.7088 13.3704C41.709 13.4988 41.7493 13.6301 41.8287 13.7664C41.8832 13.8614 41.9471 13.9402 42.0188 14.0032C42.0905 14.0662 42.1695 14.1118 42.2522 14.1393C42.3349 14.1668 42.4204 14.173 42.5072 14.1583L43.2341 15.414C42.9435 15.5244 42.654 15.5558 42.3655 15.508C42.0771 15.4603 41.8033 15.3333 41.542 15.131C41.2818 14.9268 41.0485 14.6502 40.8439 14.2957Z" fill="#4DCAFF"/>
<path d="M40.5303 16.8852L46.3681 15.196L46.8064 16.7105L46.0659 16.9244L46.0748 16.9579C46.2343 16.9717 46.3895 17.014 46.5424 17.0861C46.6936 17.1586 46.8294 17.2626 46.9484 17.4003C47.0675 17.5379 47.1567 17.7109 47.2184 17.9222C47.3001 18.2017 47.3022 18.4905 47.2258 18.7867C47.1493 19.0829 46.9746 19.3575 46.7001 19.6109C46.4251 19.8626 46.0322 20.0638 45.5204 20.2112C45.0293 20.3531 44.602 20.394 44.2355 20.3363C43.8687 20.2771 43.5696 20.1449 43.3374 19.9365C43.1052 19.7281 42.9465 19.4744 42.8583 19.1709C42.8016 18.9721 42.7824 18.7854 42.8023 18.6105C42.8222 18.4357 42.8741 18.2779 42.9556 18.1345C43.0374 17.9927 43.1417 17.8706 43.2687 17.7697L43.2627 17.7474L40.9732 18.4105L40.5303 16.8852ZM44.6778 17.3031C44.4714 17.3636 44.3006 17.4419 44.1659 17.5396C44.0311 17.6374 43.9375 17.7481 43.885 17.8717C43.8326 17.9954 43.8252 18.1275 43.8665 18.2689C43.9073 18.4086 43.9826 18.5169 44.0902 18.5925C44.1993 18.6678 44.3357 18.71 44.5007 18.7189C44.6657 18.7277 44.8538 18.7013 45.0638 18.6416C45.2734 18.5803 45.4462 18.5032 45.5814 18.407C45.7166 18.3109 45.809 18.2022 45.8619 18.0801C45.9132 17.9585 45.919 17.8268 45.8781 17.6871C45.8373 17.5473 45.762 17.439 45.6536 17.3602C45.544 17.2834 45.4072 17.2395 45.2413 17.2275C45.0759 17.217 44.8874 17.2418 44.6778 17.3031Z" fill="#4DCAFF"/>
<path d="M47.8769 22.2066L46.5402 22.9176L47.9422 23.53L48.0185 25.1056L45.7542 24.029L43.6074 25.3782L43.5309 23.8147L44.8976 22.9981L43.4599 22.3421L43.3822 20.7549L45.6513 21.9005L47.8012 20.6206L47.8769 22.2066Z" fill="#4DCAFF"/>
<path d="M45.8934 33.8834L41.7245 32.4146L42.2172 31.0136L46.386 32.4825L45.8934 33.8834ZM46.754 31.4403L42.5851 29.9715L43.0816 28.5592L47.2505 30.028L46.754 31.4403ZM44.6953 32.4731L43.5763 32.0794L44.3144 29.9842L45.4334 30.3779L44.6953 32.4731Z" fill="#4DCAFF"/>
<path d="M40.7968 33.8232C40.9488 33.5855 41.1218 33.4005 41.3158 33.268C41.5097 33.1356 41.7212 33.0686 41.947 33.068C42.1729 33.0675 42.4093 33.1445 42.657 33.3025C42.8614 33.4327 43.0135 33.5786 43.1133 33.7402C43.2131 33.9018 43.2698 34.075 43.2829 34.2582C43.2961 34.4413 43.2736 34.6323 43.2168 34.829C43.1599 35.0258 43.0762 35.2246 42.9677 35.4267C42.8502 35.6465 42.763 35.8257 42.7052 35.9679C42.6474 36.1101 42.6229 36.2229 42.6283 36.3071C42.6353 36.3908 42.6733 36.456 42.7455 36.5017L42.7556 36.5075C42.8526 36.5689 42.9514 36.5801 43.0498 36.5383C43.1482 36.4965 43.2351 36.4185 43.3098 36.3008C43.3919 36.1727 43.4295 36.0513 43.4244 35.9362C43.4192 35.8211 43.3657 35.7173 43.2599 35.6292L44.0459 34.3962C44.262 34.5575 44.4247 34.7622 44.5349 35.0136C44.645 35.2649 44.6787 35.5504 44.6364 35.8717C44.5941 36.193 44.4555 36.5384 44.219 36.9083C44.049 37.1748 43.865 37.3953 43.6677 37.5664C43.4708 37.739 43.2679 37.8636 43.0631 37.9424C42.8578 38.0197 42.6557 38.0516 42.4581 38.036C42.2605 38.0205 42.0741 37.9574 41.9021 37.846L39.3497 36.218L40.1477 34.9664L40.6721 35.3003L40.69 35.2715C40.5982 35.1077 40.5429 34.9461 40.5258 34.7863C40.5082 34.6249 40.522 34.4654 40.5698 34.3053C40.6177 34.1452 40.6928 33.9846 40.7968 33.8232ZM41.3612 34.7988C41.296 34.9002 41.2569 35.01 41.2404 35.1274C41.2239 35.2449 41.2398 35.3553 41.2826 35.4638C41.3253 35.5722 41.4039 35.6607 41.5174 35.7331L41.8272 35.9309C41.8357 35.8858 41.8458 35.8403 41.8586 35.7923C41.8714 35.7444 41.8854 35.6944 41.9026 35.6435C41.9194 35.5911 41.9394 35.5378 41.9605 35.4825C41.9816 35.4271 42.0055 35.3694 42.0326 35.3107C42.0824 35.1963 42.1104 35.0964 42.1158 35.0076C42.1211 34.9188 42.1073 34.842 42.0746 34.7772C42.0418 34.7123 41.9931 34.6586 41.929 34.6175C41.8256 34.551 41.7227 34.5375 41.6214 34.5749C41.5202 34.6123 41.4335 34.6852 41.3612 34.7988Z" fill="#4DCAFF"/>
<path d="M39.054 36.5709L42.1481 39.7285L40.7676 41.0813C40.3446 41.4961 39.9405 41.7517 39.5566 41.846C39.1726 41.9403 38.8384 41.8432 38.5576 41.5554C38.4045 41.3994 38.3372 41.1931 38.355 40.9401C38.3724 40.6854 38.4909 40.4121 38.7098 40.1172C38.4612 40.3396 38.2246 40.4852 38.0019 40.5552C37.7792 40.6251 37.5768 40.6365 37.3972 40.5922C37.2175 40.5479 37.0685 40.4645 36.9505 40.3437C36.7619 40.1511 36.6572 39.9393 36.6349 39.709C36.6121 39.4771 36.671 39.2301 36.8089 38.9654C36.9468 38.7007 37.1656 38.4246 37.4612 38.1347L39.054 36.5709ZM38.7835 38.3986L38.2413 38.9309C38.1489 39.0208 38.0983 39.1131 38.0883 39.21C38.0779 39.3052 38.1115 39.3921 38.1866 39.4679C38.2645 39.5481 38.353 39.5843 38.4488 39.5775C38.5461 39.5702 38.6412 39.5225 38.732 39.4331L39.2742 38.9008L38.7835 38.3986ZM39.8395 39.4771L39.4772 39.8311C39.4188 39.8878 39.3781 39.9467 39.3546 40.006C39.3311 40.0654 39.3257 40.1217 39.3359 40.1789C39.3477 40.2357 39.3754 40.2882 39.4224 40.3355C39.4934 40.409 39.5765 40.4381 39.6718 40.4228C39.7674 40.4092 39.8624 40.3546 39.9598 40.2583L40.2894 39.9354L39.8395 39.4771Z" fill="#4DCAFF"/>
<path d="M33.9896 40.674C34.3934 40.4305 34.788 40.2991 35.1744 40.2778C35.5591 40.2569 35.9185 40.3456 36.2519 40.5422C36.5838 40.7393 36.8738 41.0417 37.1197 41.4485C37.3546 41.8394 37.4831 42.2296 37.5013 42.6169C37.5194 43.0042 37.4349 43.3659 37.2444 43.703C37.0555 44.0396 36.7639 44.3249 36.3735 44.5614C36.0876 44.7339 35.8022 44.8446 35.5167 44.8972C35.2311 44.9497 34.9561 44.9395 34.6906 44.8685C34.4254 44.7991 34.1753 44.6709 33.9423 44.485C33.7093 44.2991 33.5018 44.055 33.3202 43.7544L33.1296 43.439L36.5111 41.4009L36.9619 42.1501L34.8316 43.4333C34.898 43.5405 34.9844 43.6201 35.0872 43.6713C35.1899 43.7226 35.3018 43.744 35.4181 43.7368C35.5343 43.7297 35.6508 43.6916 35.7644 43.6235C35.8747 43.5562 35.962 43.4729 36.0253 43.3703C36.0885 43.2678 36.1244 43.1588 36.1297 43.0444C36.135 42.9299 36.1062 42.8161 36.0433 42.7028L35.5563 41.8948C35.4828 41.7741 35.3926 41.6801 35.2828 41.6153C35.1746 41.5501 35.0569 41.52 34.9278 41.5238C34.8003 41.5271 34.6678 41.5695 34.5336 41.65C34.439 41.7061 34.3623 41.7712 34.2998 41.8445C34.2372 41.9177 34.1932 41.9963 34.1677 42.0802C34.1423 42.1641 34.1377 42.2492 34.154 42.3356L32.9114 43.0847C32.7962 42.7954 32.76 42.5071 32.8025 42.2183C32.845 41.9295 32.9658 41.6522 33.164 41.3885C33.3649 41.1223 33.6401 40.8841 33.9896 40.674Z" fill="#4DCAFF"/>
<path d="M31.3899 40.4074L33.1808 46.2158L31.6734 46.6796L31.4467 45.9423L31.4136 45.9529C31.4035 46.1132 31.3632 46.2695 31.2928 46.422C31.2239 46.574 31.1203 46.7114 30.9852 46.8332C30.85 46.955 30.6779 47.0474 30.4692 47.1119C30.191 47.1984 29.9019 47.2057 29.6038 47.1348C29.3058 47.064 29.0289 46.8933 28.7716 46.6232C28.5143 46.353 28.3071 45.9633 28.1501 45.4539C28.0007 44.9665 27.9509 44.538 28.0033 44.1712C28.0557 43.8044 28.1838 43.5029 28.3876 43.2668C28.5914 43.0307 28.8438 42.8671 29.1443 42.7746C29.3419 42.7131 29.5297 42.6919 29.7037 42.7087C29.8777 42.7254 30.0381 42.7749 30.1823 42.8527C30.3268 42.9322 30.4501 43.0344 30.5521 43.1595L30.5741 43.1519L29.8713 40.8742L31.3899 40.4074ZM31.0443 44.562C30.9807 44.3564 30.8996 44.1881 30.7987 44.0541C30.6982 43.9218 30.5863 43.8302 30.4611 43.7781C30.3362 43.7277 30.2034 43.7239 30.0641 43.7663C29.9248 43.8088 29.8186 43.8852 29.7454 43.9956C29.6723 44.1059 29.6321 44.2434 29.6268 44.4092C29.6216 44.575 29.6497 44.7627 29.7142 44.9715C29.7787 45.1803 29.8606 45.3518 29.9579 45.485C30.0568 45.6178 30.1671 45.7098 30.2899 45.7591C30.4127 45.8084 30.5439 45.8126 30.6828 45.7686C30.8216 45.7245 30.9299 45.6493 31.0047 45.5385C31.0794 45.4277 31.1212 45.2898 31.1296 45.1231C31.1381 44.9564 31.1088 44.7708 31.0443 44.562Z" fill="#4DCAFF"/>
<path d="M26.2121 47.844L25.4773 46.5202L24.8917 47.9324L23.3189 48.037L24.3539 45.7526L22.9665 43.6293L24.5293 43.5256L25.3693 44.8777L25.9996 43.4279L27.584 43.3219L26.4785 45.6115L27.7969 47.7396L26.2121 47.844Z" fill="#4DCAFF"/>
<path d="M14.5005 46.0702L15.8948 41.8743L17.3044 42.3425L15.9101 46.5384L14.5005 46.0702ZM15.8895 44.8451L16.2641 43.719L18.3728 44.4195L17.9983 45.5456L15.8895 44.8451ZM16.959 46.8876L18.3533 42.6917L19.7726 43.1642L18.3783 47.3601L16.959 46.8876Z" fill="#4DCAFF"/>
<path d="M14.4692 40.97C14.7092 41.118 14.8966 41.287 15.0323 41.4801C15.1675 41.6717 15.2376 41.8823 15.243 42.1069C15.2488 42.3331 15.1738 42.5707 15.02 42.8209C14.8939 43.0276 14.7505 43.1825 14.5897 43.2855C14.429 43.3885 14.2583 43.448 14.0745 43.4647C13.8922 43.481 13.7005 43.4621 13.5026 43.4073C13.3047 43.3524 13.104 43.2743 12.9013 43.1694C12.6807 43.0555 12.4992 42.9723 12.3558 42.9165C12.2129 42.8623 12.1002 42.8378 12.0153 42.8468C11.932 42.8554 11.8673 42.895 11.8231 42.9668L11.8173 42.9769C11.7564 43.0754 11.7484 43.1735 11.7918 43.2715C11.8351 43.3694 11.9148 43.456 12.0332 43.527C12.1625 43.6071 12.285 43.6428 12.3997 43.636C12.5159 43.6288 12.6172 43.5726 12.7037 43.4672L13.9494 44.2311C13.7922 44.4496 13.5904 44.6167 13.34 44.7301C13.0916 44.8446 12.8058 44.8835 12.4843 44.8463C12.1627 44.8092 11.8139 44.6766 11.4389 44.4466C11.1685 44.281 10.9457 44.101 10.7703 43.9065C10.5949 43.712 10.4659 43.512 10.3839 43.3079C10.3018 43.1038 10.2683 42.9022 10.2802 42.7038C10.2921 42.5054 10.3536 42.3194 10.4605 42.1434L12.0429 39.5634L13.3093 40.3406L12.9841 40.8713L13.0128 40.8893C13.1741 40.7947 13.3352 40.7378 13.4953 40.7155C13.6554 40.6931 13.8165 40.7065 13.9773 40.7507C14.1381 40.795 14.3055 40.87 14.4692 40.97ZM13.5043 41.5539C13.4017 41.4906 13.2919 41.4515 13.1738 41.4387C13.0572 41.4254 12.9451 41.4417 12.8392 41.4872C12.7333 41.5327 12.6447 41.6113 12.5744 41.726L12.3812 42.0398C12.4258 42.0467 12.4729 42.0563 12.5204 42.0675C12.568 42.0788 12.6179 42.0928 12.6704 42.1096C12.7228 42.1263 12.7757 42.1447 12.8326 42.1654C12.8879 42.1866 12.9452 42.2089 13.005 42.234C13.1206 42.2818 13.2217 42.3078 13.31 42.3115C13.3984 42.3152 13.4747 42.2999 13.5396 42.2671C13.604 42.2327 13.6561 42.1845 13.6967 42.1188C13.7612 42.0142 13.7731 41.9117 13.7341 41.8109C13.6966 41.7096 13.619 41.6242 13.5043 41.5539Z" fill="#4DCAFF"/>
<path d="M11.6903 39.2771L8.58948 42.4267L7.21224 41.0696C6.78921 40.6537 6.52813 40.2545 6.42741 39.8722C6.32668 39.4899 6.4165 39.1541 6.6993 38.8677C6.85273 38.7119 7.05612 38.6403 7.31149 38.654C7.56687 38.6678 7.84197 38.7807 8.14085 38.9952C7.91405 38.7494 7.76248 38.5161 7.68934 38.2942C7.61619 38.0723 7.59996 37.8712 7.64224 37.6903C7.68452 37.5094 7.76424 37.3597 7.88255 37.2389C8.07109 37.048 8.28146 36.9385 8.51207 36.911C8.7431 36.885 8.99192 36.9382 9.25895 37.0722C9.52599 37.2061 9.80558 37.4189 10.1009 37.7097L11.6903 39.2771ZM8.79997 40.1132L8.43934 39.7578C8.381 39.6998 8.32054 39.6595 8.2616 39.6376C8.20266 39.6157 8.14481 39.6106 8.08804 39.6224C8.03128 39.6342 7.97965 39.6652 7.9339 39.7117C7.8625 39.7839 7.83544 39.8682 7.85026 39.9619C7.86508 40.0555 7.92166 40.1517 8.01915 40.2471L8.34714 40.5702L8.79997 40.1132ZM9.85778 39.0386L9.31603 38.5056C9.22505 38.4153 9.13156 38.3667 9.03514 38.3583C8.93871 38.3499 8.85385 38.3846 8.77852 38.4613C8.70043 38.5404 8.66581 38.6285 8.67307 38.7259C8.68192 38.8228 8.73083 38.9159 8.82341 39.0058L9.36516 39.5388L9.85778 39.0386Z" fill="#4DCAFF"/>
<path d="M7.50004 34.2869C7.7511 34.6872 7.89051 35.0797 7.91826 35.4644C7.94601 35.8491 7.86465 36.21 7.67213 36.5458C7.48122 36.8813 7.18372 37.1768 6.78082 37.4303C6.39377 37.6727 6.0069 37.8072 5.6198 37.8321C5.23269 37.8571 4.8691 37.7781 4.53063 37.5948C4.19216 37.4115 3.90012 37.1267 3.6577 36.7396C3.48082 36.4564 3.36371 36.1727 3.30796 35.888C3.25221 35.6032 3.25559 35.3283 3.32088 35.0608C3.38617 34.7933 3.50869 34.5413 3.69046 34.3059C3.87223 34.0705 4.11294 33.857 4.40908 33.6715L4.72108 33.4749L6.81947 36.8205L6.07795 37.2864L4.75666 35.1796C4.65032 35.2492 4.57234 35.3351 4.52315 35.4391C4.47395 35.543 4.45417 35.6545 4.46337 35.7719C4.47257 35.8893 4.51181 36.0038 4.58312 36.1166C4.65154 36.225 4.73805 36.3114 4.84018 36.3731C4.94391 36.4343 5.05241 36.4686 5.168 36.4719C5.28359 36.4752 5.39701 36.4448 5.50783 36.3791L6.30651 35.8774C6.4268 35.8024 6.5183 35.7093 6.58145 35.6C6.64459 35.4906 6.67267 35.3717 6.66729 35.243C6.66191 35.1143 6.61679 34.9843 6.53311 34.8508C6.47578 34.7583 6.4091 34.682 6.33424 34.6199C6.25981 34.5593 6.18007 34.5173 6.09619 34.4918C6.01275 34.468 5.92646 34.4654 5.84008 34.4817L5.06917 33.2532C5.35516 33.132 5.64371 33.0907 5.93437 33.1275C6.22504 33.1644 6.50302 33.2817 6.77023 33.4738C7.04032 33.6703 7.28238 33.9411 7.50004 34.2869Z" fill="#4DCAFF"/>
<path d="M7.71743 31.6833L1.94244 33.5749L1.45179 32.0761L2.18508 31.8351L2.17449 31.8019C2.01468 31.7934 1.8576 31.7567 1.70284 31.6903C1.54807 31.6239 1.40998 31.5239 1.28699 31.3907C1.16399 31.2576 1.06843 31.0862 0.999136 30.8787C0.907811 30.6018 0.895733 30.3139 0.960876 30.0139C1.02645 29.7155 1.19261 29.4346 1.45819 29.1734C1.72376 28.9121 2.10968 28.6974 2.61678 28.5324C3.10151 28.3734 3.52821 28.3173 3.89644 28.3625C4.26468 28.4077 4.56845 28.5318 4.80648 28.73C5.04493 28.9299 5.21442 29.179 5.31174 29.4783C5.37643 29.675 5.40085 29.862 5.38775 30.0368C5.37306 30.2119 5.32883 30.3728 5.25103 30.5169C5.17525 30.6622 5.07506 30.7867 4.95086 30.8919L4.95846 30.9138L7.22337 30.1717L7.71743 31.6833ZM3.55913 31.4104C3.76381 31.3435 3.93127 31.2593 4.06112 31.156C4.19138 31.0543 4.28211 30.9392 4.33053 30.8132C4.37896 30.6872 4.38113 30.5548 4.33547 30.4163C4.28981 30.2779 4.2118 30.172 4.10028 30.1009C3.98876 30.0297 3.85011 29.9915 3.68477 29.9879C3.51943 29.9842 3.33304 30.017 3.12517 30.0847C2.9173 30.1524 2.74824 30.2371 2.61594 30.3376C2.48365 30.4382 2.39568 30.5508 2.348 30.6731C2.30075 30.7971 2.29974 30.9275 2.34541 31.066C2.39107 31.2045 2.46908 31.3103 2.58145 31.3846C2.6934 31.4574 2.83248 31.4972 2.99825 31.5024C3.16285 31.5097 3.35127 31.4781 3.55913 31.4104Z" fill="#4DCAFF"/>
<path d="M0.190269 26.6325L1.50052 25.8738L0.0781478 25.3131L-0.0554888 23.7408L2.24675 24.7354L4.34408 23.3103L4.47632 24.8709L3.13978 25.736L4.59939 26.3398L4.73399 27.9221L2.42496 26.8574L0.321254 28.214L0.190269 26.6325Z" fill="#4DCAFF"/>
<path d="M0.982774 17.3648L5.20247 18.6847L4.75639 20.1126L0.535097 18.7931L0.982774 17.3648ZM1.75503 14.8922L5.97472 16.2121L5.53087 17.6291L1.31117 16.3092L1.75503 14.8922ZM3.00327 16.26L4.13413 16.6145L3.47148 18.7358L2.34063 18.3812L3.00327 16.26Z" fill="#4DCAFF"/>
<path d="M6.85273 14.7692C6.70879 15.0115 6.54273 15.2033 6.3537 15.3413C6.16467 15.4793 5.95532 15.5542 5.73002 15.5632C5.50471 15.5722 5.26525 15.5028 5.0112 15.3534C4.80373 15.2309 4.6461 15.0899 4.54033 14.9315C4.43456 14.7732 4.37192 14.6033 4.35198 14.4203C4.33204 14.2373 4.34768 14.0464 4.39888 13.8478C4.45009 13.6491 4.52452 13.4476 4.62493 13.2409C4.7347 13.018 4.81544 12.8337 4.86799 12.6911C4.92012 12.547 4.94107 12.4335 4.93245 12.3502C4.92222 12.2673 4.88102 12.203 4.8097 12.1605L4.79957 12.1546C4.69989 12.0957 4.6023 12.0893 4.50477 12.1343C4.40724 12.1793 4.32318 12.2617 4.25377 12.3796C4.17733 12.5097 4.14212 12.6339 4.15249 12.7493C4.16126 12.8651 4.21913 12.966 4.32769 13.0517L3.5847 14.3108C3.36229 14.158 3.19244 13.9587 3.07473 13.7111C2.95542 13.4639 2.91171 13.1794 2.94359 12.8574C2.97344 12.5343 3.10074 12.1851 3.32419 11.805C3.48567 11.5323 3.6616 11.307 3.85153 11.1277C4.04307 10.9479 4.23903 10.8167 4.44219 10.7314C4.64534 10.6461 4.84568 10.6079 5.04321 10.6166C5.24233 10.6249 5.42904 10.6827 5.6057 10.7861L8.21436 12.3236L7.45968 13.603L6.92481 13.2874L6.90568 13.3182C7.00346 13.4787 7.0631 13.6374 7.08706 13.797C7.11102 13.9567 7.10131 14.1186 7.06028 14.2786C7.01851 14.4422 6.94904 14.6047 6.85273 14.7692ZM6.25293 13.815C6.31417 13.7113 6.35121 13.6003 6.36086 13.483C6.37211 13.3653 6.35461 13.2552 6.3075 13.1497C6.26039 13.0441 6.1791 12.958 6.06322 12.8898L5.74594 12.7025C5.73907 12.7471 5.73103 12.7938 5.72023 12.843C5.70942 12.8921 5.69702 12.9416 5.68185 12.9937C5.66668 13.0457 5.64875 13.1001 5.62964 13.1566C5.61054 13.2131 5.58824 13.2705 5.56477 13.3299C5.51857 13.445 5.49462 13.5473 5.49292 13.6368C5.49122 13.7263 5.50655 13.8027 5.54211 13.8651C5.57649 13.9295 5.6279 13.9808 5.69315 14.0198C5.79891 14.0823 5.90098 14.0926 6.00139 14.052C6.09977 14.0102 6.18468 13.9309 6.25293 13.815Z" fill="#4DCAFF"/>
<path d="M8.49642 11.9605L5.29185 8.9147L6.62335 7.5133C7.03211 7.08354 7.42595 6.81532 7.80603 6.70663C8.18611 6.59794 8.52254 6.68418 8.81563 6.96013C8.97423 7.11115 9.04906 7.31372 9.04011 7.56786C9.03116 7.82199 8.92274 8.10107 8.71442 8.40349C8.95564 8.17274 9.18609 8.01681 9.40705 7.94048C9.62758 7.86255 9.82783 7.84314 10.0094 7.88182C10.191 7.9205 10.3435 7.99779 10.4654 8.11411C10.6607 8.29982 10.773 8.50779 10.8037 8.73759C10.8349 8.96898 10.7854 9.21858 10.6551 9.48639C10.5252 9.75579 10.3186 10.0389 10.0328 10.3398L8.49642 11.9605ZM7.60903 9.08328L7.95747 8.71591C8.01343 8.65639 8.05373 8.59593 8.07401 8.53741C8.09385 8.47729 8.09889 8.41943 8.08593 8.36468C8.07255 8.30833 8.04202 8.25828 7.99349 8.21135C7.9201 8.14196 7.8358 8.11489 7.74101 8.13173C7.64622 8.14856 7.55254 8.20791 7.4587 8.30498L7.14059 8.63853L7.60903 9.08328ZM8.7025 10.1226L9.22595 9.57135C9.31383 9.47759 9.3624 9.38409 9.36921 9.28808C9.37601 9.19206 9.33968 9.10761 9.26139 9.03269C9.18108 8.9566 9.09144 8.92239 8.99494 8.93284C8.89843 8.94328 8.80581 8.99379 8.71634 9.08797L8.19289 9.63923L8.7025 10.1226Z" fill="#4DCAFF"/>
<path d="M13.4083 7.68192C13.0135 7.94012 12.6229 8.0859 12.2383 8.12044C11.8538 8.15498 11.4926 8.07878 11.1521 7.8943C10.8132 7.7094 10.5127 7.41832 10.2532 7.01863C10.0036 6.63682 9.86276 6.25158 9.82936 5.86495C9.79755 5.47788 9.86922 5.11276 10.0464 4.77074C10.2235 4.42872 10.5034 4.13112 10.8851 3.88156C11.1648 3.69872 11.4456 3.57725 11.729 3.51672C12.0124 3.45619 12.2876 3.45439 12.5554 3.5145C12.8231 3.5746 13.0775 3.69312 13.3168 3.87046C13.5565 4.04941 13.7734 4.28411 13.9654 4.57861L14.1663 4.8878L10.8598 7.04617L10.3809 6.31311L12.4633 4.95369C12.3925 4.84935 12.305 4.77177 12.1983 4.72501C12.0932 4.67782 11.9821 4.65962 11.864 4.67244C11.7455 4.68365 11.6318 4.72609 11.5211 4.79856C11.4132 4.86858 11.3288 4.95626 11.2696 5.06118C11.2088 5.16652 11.1782 5.27577 11.1781 5.39053C11.1764 5.50571 11.21 5.6183 11.2773 5.72871L11.7937 6.51852C11.8719 6.63798 11.9661 6.72749 12.0762 6.78703C12.1863 6.84657 12.3067 6.87424 12.433 6.86611C12.5608 6.85754 12.6904 6.81083 12.8218 6.72597C12.9134 6.66545 12.9897 6.59877 13.0482 6.52316C13.1083 6.44712 13.1487 6.3678 13.1721 6.28274C13.1956 6.19769 13.1969 6.1134 13.177 6.02627L14.3908 5.23352C14.5168 5.51829 14.5629 5.80561 14.5309 6.09504C14.4993 6.38607 14.3877 6.666 14.2001 6.93718C14.015 7.21112 13.7508 7.4583 13.4083 7.68192Z" fill="#4DCAFF"/>
<path d="M16.0158 7.85295L14.0218 2.11094L15.5114 1.59363L15.7648 2.32205L15.7975 2.30986C15.8024 2.14929 15.8375 1.99262 15.9018 1.83666C15.9662 1.6807 16.0641 1.54143 16.1948 1.41566C16.3255 1.28988 16.4943 1.19155 16.7009 1.11908C16.9765 1.02297 17.2646 1.0057 17.5649 1.06566C17.8652 1.12563 18.1479 1.2862 18.4147 1.54694C18.6814 1.80769 18.9021 2.19038 19.0767 2.69502C19.2437 3.17772 19.3079 3.60236 19.2684 3.97257C19.2285 4.34117 19.1121 4.64807 18.9168 4.89048C18.7215 5.1329 18.4749 5.30516 18.179 5.40842C17.9831 5.47631 17.7975 5.5055 17.6216 5.49441C17.4457 5.48332 17.2853 5.44067 17.1388 5.36689C16.9924 5.29311 16.8651 5.19533 16.7588 5.07313L16.7368 5.08072L17.5182 7.33222L16.0158 7.85295ZM16.2147 3.68795C16.2847 3.89181 16.3734 4.05644 16.4782 4.18588C16.5831 4.31533 16.6989 4.40246 16.8261 4.44888C16.9532 4.4953 17.0848 4.49429 17.2228 4.44704C17.3608 4.39979 17.4641 4.31901 17.5333 4.2063C17.6024 4.0936 17.6369 3.95419 17.6389 3.78925C17.639 3.62313 17.6029 3.43756 17.532 3.23051C17.4611 3.02345 17.3733 2.8552 17.27 2.72533C17.1667 2.59545 17.0541 2.50746 16.929 2.46222C16.8038 2.41697 16.6739 2.41754 16.5363 2.4664C16.3983 2.51365 16.2933 2.59485 16.2226 2.70799C16.1519 2.82112 16.1142 2.96138 16.1126 3.12793C16.1094 3.2949 16.1442 3.48249 16.2147 3.68795Z" fill="#4DCAFF"/>
<path d="M20.9292 0.238272L21.7101 1.53603L22.2456 0.103042L23.815 -0.0589023L22.8617 2.26182L24.3244 4.33416L22.7666 4.49471L21.8786 3.17428L21.3005 4.64609L19.7206 4.80741L20.7424 2.48033L19.3477 0.400018L20.9292 0.238272Z" fill="#4DCAFF"/>
</svg>
