<svg xmlns="http://www.w3.org/2000/svg" viewBox="0 0 43.94 43.83"><title>Ресурс 3</title><g id="Слой_2" data-name="Слой 2"><g id="Слой_2-2" data-name="Слой 2"><path d="M21.94,43.83A22,22,0,0,1,0,21.85a22,22,0,1,1,21.94,22Zm-3.36-22c-1.73-1.14-2.44-2.89-3.36-4.5-.47-.82-.53-2.09-1.88-2.14-1.08,0-2.17,0-3.25,0-.9,0-1.08.5-.73,1.22.73,1.48,1.44,3,2.28,4.41,2.14,3.65,4.27,7.3,9,8.07,2.37.38,3.67.41,3.74-2.15,0-.82.61-.92,1.22-.68a2.22,2.22,0,0,1,1,.76c1.69,2.73,4.35,2.5,7,2.3,1.07-.08,1.42-.89.75-1.71-.91-1.12-1.92-2.17-2.9-3.24-1.19-1.29-1.16-1.47-.1-2.9s2.12-2.95,3.09-4.48c.62-1,.26-1.58-.88-1.6s-2.5,0-3.75,0a1.41,1.41,0,0,0-1,.48c-.52.86-.87,1.81-1.35,2.69a7.17,7.17,0,0,1-2.86,3.34,5.85,5.85,0,0,1-.38-1.26c0-1,0-2,0-3,.07-2.49-.3-2.92-2.82-2.88,0,0-2.65-.23-3.66.88C19.57,16.14,19.73,19.52,18.58,21.87Z"/></g></g></svg>